<?xml version="1.0" encoding="UTF-8"?>
<!-- Created with Inkscape (http://www.inkscape.org/) -->
<svg width="149.08mm" height="112.99mm" version="1.1" viewBox="0 0 149.08205 112.98794" xmlns="http://www.w3.org/2000/svg" xmlns:cc="http://creativecommons.org/ns#" xmlns:dc="http://purl.org/dc/elements/1.1/" xmlns:rdf="http://www.w3.org/1999/02/22-rdf-syntax-ns#" xmlns:xlink="http://www.w3.org/1999/xlink">
	<defs>
		<filter id="aj" x="-.015388" y="-.054509" width="1.0308" height="1.109" color-interpolation-filters="sRGB">
			<feGaussianBlur stdDeviation="0.024099401"/>
		</filter>
		<radialGradient id="g" cx="289.72" cy="412.83" r=".053743" gradientTransform="matrix(1.1735 0 0 1.1058 -50.276 -43.662)" gradientUnits="userSpaceOnUse" xlink:href="#ag"/>
		<linearGradient id="ag">
			<stop stop-color="#c2c9ca" stop-opacity=".37603" offset="0"/>
			<stop stop-color="#fff" stop-opacity="0" offset="1"/>
		</linearGradient>
		<linearGradient id="h" x1="8.4716" x2="17.364" y1="124.88" y2="123.79" gradientUnits="userSpaceOnUse" xlink:href="#j"/>
		<linearGradient id="j">
			<stop stop-color="#c8c6ca" stop-opacity="0" offset="0"/>
			<stop stop-color="#c8c6ca" stop-opacity=".72157" offset=".39592"/>
			<stop stop-color="#c8c6ca" stop-opacity=".41961" offset=".48155"/>
			<stop stop-color="#c8c6ca" stop-opacity="0" offset="1"/>
		</linearGradient>
		<filter id="ak" x="-.015388" y="-.054509" width="1.0308" height="1.109" color-interpolation-filters="sRGB">
			<feGaussianBlur stdDeviation="0.024099401"/>
		</filter>
		<linearGradient id="i" x1="116.38" x2="124.09" y1="381.3" y2="364.2" gradientTransform="matrix(.79349 -.18273 .18273 .79349 -101.2 -729.82)" gradientUnits="userSpaceOnUse">
			<stop stop-opacity=".63529" offset="0"/>
			<stop stop-opacity="0" offset="1"/>
		</linearGradient>
		<linearGradient id="f" x1="172.12" x2="160.9" y1="474.17" y2="442.18" gradientTransform="matrix(.12338 0 0 .12338 -22.488 359.47)" gradientUnits="userSpaceOnUse" xlink:href="#m"/>
		<linearGradient id="m">
			<stop stop-color="#6969e1" offset="0"/>
			<stop stop-color="#1011a1" offset="1"/>
		</linearGradient>
		<linearGradient id="e" x1="160.71" x2="171.19" y1="441.99" y2="474.36" gradientTransform="matrix(.12338 0 0 .12338 -22.488 359.47)" gradientUnits="userSpaceOnUse" xlink:href="#l"/>
		<linearGradient id="l">
			<stop stop-color="#b40e0e" offset="0"/>
			<stop stop-color="#f24c4c" offset="1"/>
		</linearGradient>
		<linearGradient id="d" x1="143.68" x2="173.81" y1="475.48" y2="480.91" gradientTransform="matrix(.12338 0 0 .12338 -22.488 359.47)" gradientUnits="userSpaceOnUse" xlink:href="#n"/>
		<linearGradient id="n">
			<stop stop-color="#01de00" offset="0"/>
			<stop stop-color="#01a300" offset="1"/>
		</linearGradient>
		<linearGradient id="c" x1="170.63" x2="171" y1="477.67" y2="476.78" gradientTransform="matrix(.12338 0 0 .12338 -22.488 359.47)" gradientUnits="userSpaceOnUse" xlink:href="#k"/>
		<linearGradient id="k">
			<stop stop-color="#b40e0e" stop-opacity=".92975" offset="0"/>
			<stop stop-color="#99403c" stop-opacity="0" offset="1"/>
		</linearGradient>
		<linearGradient id="z" x1="121.62" x2="125.18" y1="348.24" y2="348.86" gradientTransform="matrix(1.1071 -.23352 .23352 1.1071 -161.56 -816.89)" gradientUnits="userSpaceOnUse" xlink:href="#b"/>
		<linearGradient id="b">
			<stop stop-color="#f96667" offset="0"/>
			<stop stop-color="#f90000" offset="1"/>
		</linearGradient>
		<linearGradient id="q" x1="121.19" x2="124.96" y1="349.86" y2="350.95" gradientTransform="matrix(1.1071 -.23352 .23352 1.1071 -161.56 -816.89)" gradientUnits="userSpaceOnUse" xlink:href="#a"/>
		<linearGradient id="a">
			<stop stop-color="#ff463b" offset="0"/>
			<stop stop-color="#ed8177" offset=".66691"/>
			<stop stop-color="#ff261e" stop-opacity=".99174" offset="1"/>
		</linearGradient>
		<linearGradient id="ad" x1="121.62" x2="125.18" y1="348.24" y2="348.86" gradientTransform="matrix(1.0875 -.22938 .22938 1.0875 -164.05 -812.53)" gradientUnits="userSpaceOnUse" xlink:href="#b"/>
		<linearGradient id="s" x1="121.19" x2="124.96" y1="349.86" y2="350.95" gradientTransform="matrix(1.0875 -.22938 .22938 1.0875 -164.05 -812.53)" gradientUnits="userSpaceOnUse" xlink:href="#a"/>
		<linearGradient id="ab" x1="121.62" x2="125.18" y1="348.24" y2="348.86" gradientTransform="matrix(1.0699 -.22567 .22567 1.0699 -166.56 -808.48)" gradientUnits="userSpaceOnUse" xlink:href="#b"/>
		<linearGradient id="v" x1="121.19" x2="124.96" y1="349.86" y2="350.95" gradientTransform="matrix(1.0699 -.22567 .22567 1.0699 -166.56 -808.48)" gradientUnits="userSpaceOnUse" xlink:href="#a"/>
		<linearGradient id="y" x1="121.62" x2="125.18" y1="348.24" y2="348.86" gradientTransform="matrix(1.0483 -.22111 .22111 1.0483 -168.1 -803.05)" gradientUnits="userSpaceOnUse" xlink:href="#b"/>
		<linearGradient id="u" x1="121.19" x2="124.96" y1="349.86" y2="350.95" gradientTransform="matrix(1.0483 -.22111 .22111 1.0483 -168.1 -803.05)" gradientUnits="userSpaceOnUse" xlink:href="#a"/>
		<linearGradient id="aa" x1="121.62" x2="125.18" y1="348.24" y2="348.86" gradientTransform="matrix(1.1026 -.25393 .25393 1.1026 -166.04 -817.73)" gradientUnits="userSpaceOnUse" xlink:href="#b"/>
		<linearGradient id="r" x1="121.19" x2="124.96" y1="349.86" y2="350.95" gradientTransform="matrix(1.1026 -.25393 .25393 1.1026 -166.04 -817.73)" gradientUnits="userSpaceOnUse" xlink:href="#a"/>
		<linearGradient id="ae" x1="121.62" x2="125.18" y1="348.24" y2="348.86" gradientTransform="matrix(1.0831 -.24943 .24943 1.0831 -168.45 -813.32)" gradientUnits="userSpaceOnUse" xlink:href="#b"/>
		<linearGradient id="t" x1="121.19" x2="124.96" y1="349.86" y2="350.95" gradientTransform="matrix(1.0831 -.24943 .24943 1.0831 -168.45 -813.32)" gradientUnits="userSpaceOnUse" xlink:href="#a"/>
		<linearGradient id="ac" x1="121.62" x2="125.18" y1="348.24" y2="348.86" gradientTransform="matrix(1.0656 -.24539 .24539 1.0656 -170.88 -809.23)" gradientUnits="userSpaceOnUse" xlink:href="#b"/>
		<linearGradient id="w" x1="121.19" x2="124.96" y1="349.86" y2="350.95" gradientTransform="matrix(1.0656 -.24539 .24539 1.0656 -170.88 -809.23)" gradientUnits="userSpaceOnUse" xlink:href="#a"/>
		<linearGradient id="af" x1="121.62" x2="125.18" y1="348.24" y2="348.86" gradientTransform="matrix(1.044 -.24043 .24043 1.044 -172.32 -803.76)" gradientUnits="userSpaceOnUse" xlink:href="#b"/>
		<linearGradient id="x" x1="121.19" x2="124.96" y1="349.86" y2="350.95" gradientTransform="matrix(1.044 -.24043 .24043 1.044 -172.32 -803.76)" gradientUnits="userSpaceOnUse" xlink:href="#a"/>
		<linearGradient id="p" x1="115.76" x2="136.13" y1="357.52" y2="370.02" gradientTransform="matrix(1.0023 -.23082 .23082 1.0023 -163.94 -790.43)" gradientUnits="userSpaceOnUse">
			<stop stop-color="#b5323f" offset="0"/>
			<stop stop-color="#ed5a61" offset="1"/>
		</linearGradient>
		<linearGradient id="o" x1="117.77" x2="140.6" y1="353.59" y2="360.33" gradientTransform="matrix(1.0023 -.23082 .23082 1.0023 -163.94 -790.43)" gradientUnits="userSpaceOnUse">
			<stop stop-color="#c03a36" offset="0"/>
			<stop stop-color="#ed393d" offset="1"/>
		</linearGradient>
		<filter id="ah" x="-.070976" y="-.12754" width="1.142" height="1.2551" color-interpolation-filters="sRGB">
			<feGaussianBlur stdDeviation="0.93503731"/>
		</filter>
		<filter id="ai" x="-.03551" y="-.047942" width="1.071" height="1.0959" color-interpolation-filters="sRGB">
			<feGaussianBlur stdDeviation="1.6304947"/>
		</filter>
	</defs>
	<metadata>
		<rdf:RDF>
			<cc:Work rdf:about="">
				<dc:format>image/svg+xml</dc:format>
				<dc:type rdf:resource="http://purl.org/dc/dcmitype/StillImage"/>
				<dc:title/>
			</cc:Work>
		</rdf:RDF>
	</metadata>
	<g transform="translate(73.029 478.4)">
		<rect transform="matrix(1.2631 0 0 1.2631 -56.64 -909.02)" x="-9.062" y="344.82" width="110.2" height="81.624" fill-opacity=".98347" filter="url(#ai)"/>
		<rect x="-69.34" y="-474.55" width="139.2" height="103.1" fill="#ececec" fill-opacity=".98347"/>
		<g fill="none" stroke="#000" stroke-width="1.0926">
			<path d="m21.533-425.42 16.454 16.449"/>
			<path d="m4.0842-425.7 4.7808 16.729"/>
			<path d="m-13.979-425.68-15.144 16.823"/>
		</g>
		<rect x="-24.893" y="-442.08" width="55.759" height="20.4" fill="#fc0" fill-opacity=".98347" stroke="#000" stroke-linejoin="round" stroke-opacity=".94628" stroke-width="1.3039"/>
		<rect x="-20.201" y="-430.34" width="46.394" height="5.0961" fill="#c8ab37"/>
		<g fill="#000000" font-family="'Open Sans'" letter-spacing="0px" text-anchor="middle" word-spacing="0px">
			<text x="-6.3021426" y="-426.75653" font-size="3.0367px" stroke-width=".37958" text-align="center" style="font-feature-settings:normal;font-variant-caps:normal;font-variant-ligatures:normal;font-variant-numeric:normal;line-height:1.25" xml:space="preserve"><tspan x="-6.3021431" y="-426.75653" fill="#000000" font-family="'Open Sans'" stroke-width=".37958">libjsongit2</tspan></text>
			<text x="23.720867" y="-389.39441" fill-opacity=".8549" font-size="2.6736px" stroke-width=".3342" text-align="center" style="font-feature-settings:normal;font-variant-caps:normal;font-variant-ligatures:normal;font-variant-numeric:normal;line-height:1.25" xml:space="preserve"><tspan x="23.720867" y="-389.39441" fill="#000000" fill-opacity=".8549" font-family="'Open Sans'" stroke-width=".3342">Already in popular distros</tspan></text>
			<text x="-26.792557" y="-389.03116" font-size="2.6736px" stroke-width=".3342" text-align="center" style="font-feature-settings:normal;font-variant-caps:normal;font-variant-ligatures:normal;font-variant-numeric:normal;line-height:1.25" xml:space="preserve"><tspan x="-26.792557" y="-389.03116">Already in popular distros</tspan><tspan x="-26.792557" y="-385.68912">...but we need latest version</tspan></text>
			<text x="-23.468563" y="-462.81235" font-size="9.8408px" stroke-width="1.2301" text-align="center" style="font-feature-settings:normal;font-variant-caps:normal;font-variant-ligatures:normal;font-variant-numeric:normal;line-height:1.25" xml:space="preserve"><tspan x="-23.468563" y="-462.81235" fill="#000000" font-family="'Open Sans'" stroke-width="1.2301" text-align="start" text-anchor="start">Build Deps</tspan></text>
		</g>
		<g>
			<path transform="matrix(1.0023 -.23082 .23082 1.0023 -114.88 -801.63)" d="m65.641 359.35c-0.44097 0.48507-0.88194 0.97013-1.3229 1.4552 8.3344 5.2476 16.669 10.495 25.003 15.743 2.2049-3.5278 4.4097-7.0556 6.6146-10.583-0.35278-0.57326-0.70555-1.1465-1.0583-1.7198-1.9844 1.8521-3.9688 3.7042-5.9531 5.5562-3.0456-1.822-6.0685-3.6876-9.1283-5.4824-4.0569-1.7885-8.1138-3.577-12.171-5.3656-0.66146 0.13229-1.3229 0.26459-1.9844 0.39688z" fill="#121112" filter="url(#ah)"/>
			<path d="m32.811-461.9 0.95657 5.535 27.024 9.0015 3.8068-11.07-0.7885-5.6195-25.484-6.68z" fill="url(#o)"/>
			<path d="m32.833-461.81 26.967 8.2044 1.0392 6.2275-26.923-8.9549z" fill="url(#p)"/>
		</g>
		<path d="m63.785-463.95-3.9277 10.383 0.99234 6.2383 3.7148-11.078z" fill="none"/>
		<g>
			<path d="m38.196-469.5-0.14939 2.3098c0.19702 0.69356 1.2209 1.3922 2.3033 1.4849 1.4153 0.0639 2.0265-0.61911 2.4079-1.5974-0.18832-1.7481-0.28545-2.2273-0.25437-1.9238-0.078 0.96019-1.0428 1.4607-1.9008 1.5123-0.79902 0.0637-1.5305-0.44734-2.0484-1.0015-0.20548-0.22066-0.17895-0.47823-0.36579-0.7054z" fill="url(#x)"/>
			<path d="m39.55-470.89c1.0956-0.27638 2.5841 0.0682 2.894 1.155 0.13734 0.45515 0.0644 0.98115-0.26718 1.3373-0.49839 0.58652-1.3252 0.81664-2.0675 0.66072-1.0006-0.24172-1.7712-0.76998-1.9363-1.7598 0.0221-0.63015 0.88478-1.2717 1.3769-1.3932z" fill="url(#af)"/>
			<path d="m43.978-468.08-0.15248 2.3574c0.20119 0.70782 1.2461 1.4209 2.3509 1.5155 1.4444 0.0651 2.0683-0.63187 2.4575-1.6303-0.19221-1.7841-0.29137-2.2733-0.25963-1.9635-0.0796 0.98004-1.0643 1.4909-1.94 1.5436-0.81554 0.0651-1.5621-0.45657-2.0907-1.0221-0.20972-0.22522-0.18262-0.48812-0.37336-0.71996z" fill="url(#w)"/>
			<path d="m45.36-469.49c1.1182-0.28209 2.6374 0.0696 2.9537 1.1788 0.14024 0.4645 0.0657 1.0014-0.27269 1.3648-0.50868 0.59863-1.3526 0.83353-2.1102 0.67437-1.0212-0.2467-1.8078-0.78588-1.9762-1.7961 0.0226-0.64313 0.90302-1.2979 1.4053-1.4218z" fill="url(#ac)"/>
			<path d="m49.945-466.55-0.155 2.3963c0.2045 0.71948 1.2666 1.4443 2.3896 1.5404 1.4682 0.0662 2.1024-0.64228 2.498-1.6572-0.19535-1.8135-0.29613-2.3107-0.26389-1.9958-0.0809 0.99614-1.0818 1.5154-1.9719 1.5689-0.82898 0.0662-1.5878-0.46406-2.1251-1.039-0.21317-0.22893-0.18572-0.49613-0.37953-0.73182z" fill="url(#t)"/>
			<path d="m51.35-467.99c1.1366-0.28672 2.6808 0.0708 3.0024 1.1982 0.14252 0.47218 0.0668 1.0179-0.27715 1.3873-0.51707 0.60847-1.3748 0.84723-2.1449 0.68544-1.0381-0.25076-1.8375-0.79879-2.0088-1.8257 0.023-0.65371 0.91789-1.3193 1.4285-1.4452z" fill="url(#ae)"/>
			<path d="m56.297-464.7-0.15778 2.4395c0.208 0.73247 1.2894 1.4703 2.4326 1.5682 1.4947 0.0674 2.1403-0.65389 2.5431-1.6871-0.19888-1.8462-0.3015-2.3524-0.26864-2.0318-0.0824 1.0141-1.1014 1.5428-2.0075 1.5972-0.84391 0.0673-1.6165-0.47246-2.1634-1.0577-0.21702-0.23305-0.18892-0.50512-0.38638-0.74502z" fill="url(#r)"/>
			<path d="m57.727-466.17c1.1571-0.29194 2.7292 0.072 3.0565 1.2198 0.14523 0.48066 0.068 1.0362-0.28217 1.4123-0.52638 0.61945-1.3996 0.86251-2.1836 0.69779-1.0568-0.25527-1.8707-0.8132-2.045-1.8586 0.0233-0.66554 0.93444-1.3431 1.4542-1.4714z" fill="url(#aa)"/>
			<path d="m36.209-464.96-0.19203 2.3066c0.18434 0.69704 1.195 1.4145 2.2755 1.5271 1.4138 0.09 2.0376-0.58154 2.437-1.5526-0.15601-1.7512-0.24429-2.2322-0.2188-1.9282-0.0958 0.95861-1.0696 1.4412-1.9284 1.477-0.80009 0.0491-1.522-0.4755-2.0296-1.0391-0.20138-0.22444-0.17012-0.48146-0.35274-0.71206z" fill="url(#u)"/>
			<path d="m37.588-466.32c1.1003-0.25718 2.5824 0.11594 2.8722 1.2082 0.12907 0.45757 0.0463 0.98215-0.29181 1.3321-0.50913 0.57719-1.3401 0.79204-2.0794 0.6224-0.99597-0.26015-1.7567-0.80255-1.9034-1.7953 0.0338-0.62964 0.90811-1.2551 1.4024-1.3675z" fill="url(#y)"/>
			<path d="m41.963-463.42-0.19598 2.3542c0.18803 0.71142 1.2196 1.4436 2.3225 1.5586 1.443 0.0919 2.0796-0.59349 2.4872-1.5846-0.15922-1.7874-0.24931-2.2783-0.22331-1.9679-0.0976 0.97835-1.0916 1.471-1.9681 1.5074-0.8166 0.0501-1.5534-0.48533-2.0714-1.0606-0.20553-0.22906-0.17366-0.49136-0.36-0.72672z" fill="url(#v)"/>
			<path d="m43.371-464.82c1.123-0.26241 2.6356 0.11827 2.9315 1.2332 0.13174 0.467 0.0472 1.0024-0.29786 1.3596-0.51964 0.58909-1.3677 0.80836-2.1223 0.63524-1.0165-0.2655-1.7929-0.81909-1.9427-1.8323 0.0345-0.64263 0.92685-1.281 1.4314-1.3957z" fill="url(#ab)"/>
			<path d="m47.901-461.79-0.19923 2.393c0.19125 0.72311 1.2397 1.4674 2.3607 1.5843 1.4668 0.0933 2.1138-0.60338 2.5282-1.6107-0.16182-1.8168-0.2534-2.3158-0.22697-2.0004-0.0994 0.99447-1.1096 1.4952-2.0005 1.5322-0.83002 0.051-1.579-0.4933-2.1055-1.078-0.2089-0.23284-0.1764-0.49948-0.36594-0.7387z" fill="url(#s)"/>
			<path d="m49.332-463.2c1.1415-0.26667 2.679 0.12024 2.9797 1.2534 0.1339 0.4747 0.048 1.0189-0.30274 1.382-0.52822 0.59883-1.3902 0.82169-2.1572 0.64571-1.0333-0.26989-1.8225-0.8326-1.9747-1.8625 0.035-0.65318 0.94208-1.3021 1.4549-1.4186z" fill="url(#ad)"/>
			<path d="m54.218-459.83-0.20279 2.4362c0.19448 0.7362 1.2621 1.4939 2.4033 1.6129 1.4932 0.0951 2.152-0.61431 2.5738-1.6398-0.16476-1.8496-0.258-2.3576-0.23107-2.0364-0.10108 1.0124-1.1296 1.5222-2.0366 1.5599-0.84503 0.0518-1.6075-0.50222-2.1435-1.0975-0.21269-0.23703-0.17975-0.50849-0.37255-0.75202z" fill="url(#q)"/>
			<path d="m55.675-461.26c1.1621-0.2714 2.7274 0.12245 3.0335 1.2761 0.13625 0.48328 0.0489 1.0373-0.3082 1.4069-0.53774 0.6096-1.4153 0.83651-2.1961 0.65735-1.0519-0.27475-1.8553-0.84761-2.0103-1.8961 0.0356-0.66498 0.9591-1.3256 1.4812-1.4442z" fill="url(#z)"/>
		</g>
		<g transform="matrix(.87389 0 0 .87389 -40.216 -824.75)">
			<circle cx="79.782" cy="438.91" r="4.9835" fill="#fff6d5" fill-opacity=".97521" stroke="#000" stroke-linejoin="round" stroke-width=".35389"/>
			<text x="79.842163" y="442.10245" fill="#000000" font-family="'Open Sans'" font-size="1.8486px" letter-spacing="0px" stroke-width=".23107" text-align="center" text-anchor="middle" word-spacing="0px" style="font-feature-settings:normal;font-variant-caps:normal;font-variant-ligatures:normal;font-variant-numeric:normal;line-height:1.25" xml:space="preserve"><tspan x="79.842163" y="442.10245" stroke-width=".23107">cmake</tspan></text>
			<g transform="matrix(.87335 0 0 .87335 82.375 74.143)">
				<g>
					<path d="m-2.9592 412.95-2.979 6.0355 3.2085-2.7006z" fill="url(#f)"/>
					<path d="m-2.9606 412.96 2.9776 6.0245-2.6573-1.1026z" fill="url(#e)"/>
					<path d="m-3.9762 417.33 4.0341 1.6768-6.0192 8e-3z" fill="url(#d)"/>
					<path d="m-2.6494 417.88 2.6605 1.095-0.065289-0.13873-2.5919-1.0753z" fill="url(#c)"/>
				</g>
				<path d="m-2.9675 412.94-2.9706 6.0717h5.9738z" fill="none" stroke="#000" stroke-width=".05737"/>
				<path d="m-2.649 417.88-0.32316-4.9166" fill="none" stroke="#000" stroke-width=".032644px"/>
			</g>
		</g>
		<rect x="-47.408" y="-408.72" width="39.617" height="13.331" fill="#008000" fill-opacity=".95455" stroke="#000" stroke-linejoin="round" stroke-opacity=".94628" stroke-width=".88847"/>
		<g>
			<text x="-27.2822" y="-400.82877" fill="#ffffff" font-family="'Open Sans'" font-size="5.0715px" letter-spacing="0px" stroke-width=".63394" text-align="center" text-anchor="middle" word-spacing="0px" style="font-feature-settings:normal;font-variant-caps:normal;font-variant-ligatures:normal;font-variant-numeric:normal;line-height:1.25" xml:space="preserve"><tspan x="-27.2822" y="-400.82877" fill="#ffffff" font-family="'Open Sans'" stroke-width=".63394">libwebsockets</tspan></text>
			<rect x="-4.3916" y="-408.99" width="27.414" height="13.477" fill="#9aff98" stroke="#000" stroke-linejoin="round" stroke-opacity=".94628" stroke-width=".7431"/>
			<text x="9.165143" y="-400.46484" fill="#000000" font-family="'Open Sans'" font-size="5.0715px" letter-spacing="0px" stroke-width=".63394" text-align="center" text-anchor="middle" word-spacing="0px" style="font-feature-settings:normal;font-variant-caps:normal;font-variant-ligatures:normal;font-variant-numeric:normal;line-height:1.25" xml:space="preserve"><tspan x="9.165143" y="-400.46484" fill="#000000" font-family="'Open Sans'" stroke-width=".63394">libarchive</tspan></text>
			<rect x="26.94" y="-409.1" width="24.461" height="13.517" fill="#9aff98" stroke="#000" stroke-linejoin="round" stroke-opacity=".94628" stroke-width=".70298"/>
			<text x="39.206753" y="-400.74548" fill="#000000" font-family="'Open Sans'" font-size="5.0715px" letter-spacing="0px" stroke-width=".63394" text-align="center" text-anchor="middle" word-spacing="0px" style="font-feature-settings:normal;font-variant-caps:normal;font-variant-ligatures:normal;font-variant-numeric:normal;line-height:1.25" xml:space="preserve"><tspan x="39.206753" y="-400.74548" fill="#000000" font-family="'Open Sans'" stroke-width=".63394">libgit2</tspan></text>
		</g>
		<g transform="matrix(.87389 0 0 .87389 -79.653 -791.47)">
			<circle cx="79.782" cy="438.91" r="4.9835" fill="#fff6d5" fill-opacity=".97521" stroke="#000" stroke-linejoin="round" stroke-width=".35389"/>
			<text x="79.842163" y="442.10245" fill="#000000" font-family="'Open Sans'" font-size="1.8486px" letter-spacing="0px" stroke-width=".23107" text-align="center" text-anchor="middle" word-spacing="0px" style="font-feature-settings:normal;font-variant-caps:normal;font-variant-ligatures:normal;font-variant-numeric:normal;line-height:1.25" xml:space="preserve"><tspan x="79.842163" y="442.10245" stroke-width=".23107">cmake</tspan></text>
			<g transform="matrix(.87335 0 0 .87335 82.375 74.143)">
				<g>
					<path d="m-2.9592 412.95-2.979 6.0355 3.2085-2.7006z" fill="url(#f)"/>
					<path d="m-2.9606 412.96 2.9776 6.0245-2.6573-1.1026z" fill="url(#e)"/>
					<path d="m-3.9762 417.33 4.0341 1.6768-6.0192 8e-3z" fill="url(#d)"/>
					<path d="m-2.6494 417.88 2.6605 1.095-0.065289-0.13873-2.5919-1.0753z" fill="url(#c)"/>
				</g>
				<path d="m-2.9675 412.94-2.9706 6.0717h5.9738z" fill="none" stroke="#000" stroke-width=".05737"/>
				<path d="m-2.649 417.88-0.32316-4.9166" fill="none" stroke="#000" stroke-width=".032644px"/>
			</g>
		</g>
		<g transform="matrix(.87389 0 0 .87389 -18.683 -791.58)">
			<circle cx="79.782" cy="438.91" r="4.9835" fill="#fff6d5" fill-opacity=".97521" stroke="#000" stroke-linejoin="round" stroke-width=".35389"/>
			<text x="79.842163" y="442.10245" fill="#000000" font-family="'Open Sans'" font-size="1.8486px" letter-spacing="0px" stroke-width=".23107" text-align="center" text-anchor="middle" word-spacing="0px" style="font-feature-settings:normal;font-variant-caps:normal;font-variant-ligatures:normal;font-variant-numeric:normal;line-height:1.25" xml:space="preserve"><tspan x="79.842163" y="442.10245" stroke-width=".23107">cmake</tspan></text>
			<g transform="matrix(.87335 0 0 .87335 82.375 74.143)">
				<g>
					<path d="m-2.9592 412.95-2.979 6.0355 3.2085-2.7006z" fill="url(#f)"/>
					<path d="m-2.9606 412.96 2.9776 6.0245-2.6573-1.1026z" fill="url(#e)"/>
					<path d="m-3.9762 417.33 4.0341 1.6768-6.0192 8e-3z" fill="url(#d)"/>
					<path d="m-2.6494 417.88 2.6605 1.095-0.065289-0.13873-2.5919-1.0753z" fill="url(#c)"/>
				</g>
				<path d="m-2.9675 412.94-2.9706 6.0717h5.9738z" fill="none" stroke="#000" stroke-width=".05737"/>
				<path d="m-2.649 417.88-0.32316-4.9166" fill="none" stroke="#000" stroke-width=".032644px"/>
			</g>
		</g>
		<g>
			<path d="m59.745-453.59 4.0881-10.448 0.75845 5.5734-3.814 11.158z" fill="url(#i)"/>
			<text x="11.626454" y="-426.9545" dominant-baseline="auto" fill="#000000" font-family="'Open Sans'" font-size="2.1167px" letter-spacing="0px" stroke-width=".26458" text-align="center" text-anchor="middle" word-spacing="0px" style="font-feature-settings:normal;font-variant-alternates:normal;font-variant-caps:normal;font-variant-ligatures:normal;font-variant-numeric:normal;font-variant-position:normal;line-height:1.25;shape-padding:0;text-decoration-color:#000000;text-decoration-line:none;text-decoration-style:solid;text-indent:0;text-orientation:mixed;text-transform:none;white-space:normal" xml:space="preserve"><tspan x="11.626454" y="-426.9545" stroke-width=".26458">(part of gitohashi)</tspan></text>
			<g transform="matrix(3.2533 -.0045713 .0045713 3.2533 -89.586 -861.44)" fill="#fff" filter="url(#ak)" stroke="#fff" stroke-width=".075" style="font-feature-settings:normal;font-variant-caps:normal;font-variant-ligatures:normal;font-variant-numeric:normal" aria-label="gitohashi">
				<path d="m14.309 121.8v0.0805l-0.06863 0.0155q0.02012 0.0361 0.02012 0.0908 0 0.0913-0.04953 0.14293-0.04953 0.0516-0.13828 0.0516-0.0258 0-0.03818-4e-3 -0.0098 9e-3 -0.01858 0.0196-0.0088 0.0108-0.0088 0.0268 0 0.0361 0.06243 0.0361h0.08307q0.07327 0 0.11248 0.0397 0.03973 0.0392 0.03973 0.11868 0 0.1001-0.06708 0.15479-0.06708 0.0547-0.19297 0.0547-0.09545 0-0.14705-0.0418-0.0516-0.0413-0.0516-0.11816 0-0.048 0.02941-0.0846 0.02941-0.0361 0.08152-0.0526-0.02631-0.0103-0.04334-0.032-0.01651-0.0217-0.01651-0.0506 0-0.0175 0.0052-0.0315 0.0052-0.0144 0.01445-0.0268 0.0098-0.0129 0.03921-0.0377-0.0356-0.0217-0.05624-0.0666t-0.02064-0.0996q0-0.0944 0.04953-0.14602 0.04953-0.0516 0.14189-0.0516 0.01754 0 0.04025 4e-3 0.0227 4e-3 0.03457 8e-3zm-0.33796 0.65735q0 0.0341 0.02116 0.0521 0.02167 0.0186 0.0614 0.0186 0.06243 0 0.09339-0.0237 0.03147-0.0237 0.03147-0.065 0-0.0325-0.01703-0.0459-0.01651-0.0134-0.06243-0.0134h-0.06656q-0.02786 0-0.04489 0.0206-0.01651 0.0212-0.01651 0.0568zm0.04231-0.47057q0 0.10165 0.05727 0.10165 0.05573 0 0.05573-0.10268 0-0.10526-0.05573-0.10526-0.05727 0-0.05727 0.10629z"/>
				<path d="m14.517 122.37h-0.13725v-0.57479h0.13725zm-0.14292-0.72494q0-0.0341 0.01961-0.0537 0.02012-0.0201 0.05572-0.0201 0.03354 0 0.05366 0.0201 0.02012 0.0196 0.02012 0.0537 0 0.0351-0.02064 0.0547-0.02064 0.0191-0.05315 0.0191-0.03405 0-0.05469-0.0191-0.02064-0.0196-0.02064-0.0547z"/>
				<path d="m14.834 122.26q0.02889 0 0.06243-0.0145v0.10732q-0.03354 0.0232-0.10062 0.0232-0.07482 0-0.11094-0.0444-0.03612-0.0449-0.03612-0.13415v-0.29772h-0.05573v-0.0614l0.07172-0.0495 0.03509-0.12177h0.08772v0.12384h0.10423v0.10887h-0.10423v0.30236q0 0.0578 0.04644 0.0578z"/>
				<path d="m15.403 122.08q0 0.14138-0.05985 0.22032-0.05985 0.0784-0.16408 0.0784-0.06604 0-0.11661-0.0361-0.05057-0.0361-0.07791-0.10371-0.02735-0.0681-0.02735-0.15892 0-0.13983 0.05934-0.21825 0.05934-0.0789 0.1646-0.0789 0.10165 0 0.1615 0.0805 0.06037 0.08 0.06037 0.21671zm-0.30546 0q0 0.0898 0.01961 0.1357t0.06295 0.0459q0.08256 0 0.08256-0.18163 0-0.0903-0.02012-0.13467-0.01961-0.0449-0.06243-0.0449-0.04334 0-0.06295 0.0449-0.01961 0.0444-0.01961 0.13467z"/>
				<path d="m15.786 122.37v-0.3426q0-0.12642-0.06346-0.12642-0.04747 0-0.06656 0.05-0.01909 0.0495-0.01909 0.14293v0.27604h-0.13725v-0.80285h0.13725v0.17852q0 0.0346-0.0062 0.12332h0.0072q0.04128-0.0846 0.12693-0.0846 0.07895 0 0.11919 0.0537 0.04025 0.0532 0.04025 0.15686v0.37511z"/>
				<path d="m16.318 122.37-0.02735-0.0784h-0.0031q-0.03044 0.0506-0.06295 0.0697t-0.08204 0.0191q-0.06347 0-0.1001-0.0475-0.03612-0.0475-0.03612-0.13209 0-0.0908 0.04953-0.13467 0.05005-0.0444 0.14912-0.049l0.07636-3e-3v-0.0413q0-0.0805-0.06966-0.0805-0.0516 0-0.11867 0.0403l-0.04747-0.0949q0.08565-0.0542 0.18627-0.0542 0.09133 0 0.1388 0.0526 0.04799 0.0521 0.04799 0.14808v0.38595zm-0.11919-0.097q0.03767 0 0.05985-0.0335 0.0227-0.0341 0.0227-0.0903v-0.0485l-0.04231 2e-3q-0.04695 3e-3 -0.06914 0.0268-0.02167 0.0242-0.02167 0.0722 0 0.0712 0.05057 0.0712z"/>
				<path d="m16.838 122.2q0 0.0841-0.04953 0.13157-0.04902 0.047-0.14499 0.047-0.08514 0-0.14086-0.0335v-0.11919q0.02838 0.0196 0.06604 0.0325 0.03818 0.0129 0.06708 0.0129 0.03199 0 0.0485-0.0155 0.01703-0.016 0.01703-0.0418 0-0.0263-0.01754-0.0459t-0.0645-0.048q-0.06243-0.0371-0.08978-0.0789-0.02683-0.0423-0.02683-0.0996 0-0.0733 0.05005-0.11609 0.05057-0.0428 0.13828-0.0428 0.07636 0 0.14396 0.0403l-0.04489 0.0986q-0.05521-0.0299-0.097-0.0299-0.02631 0-0.03973 0.0139-0.0129 0.0139-0.0129 0.0341 0 0.0232 0.016 0.0413 0.01651 0.0181 0.06089 0.0449 0.05366 0.0325 0.07533 0.0552t0.03354 0.0516 0.01187 0.0676z"/>
				<path d="m17.212 122.37v-0.3426q0-0.12642-0.06347-0.12642-0.04747 0-0.06656 0.05-0.01909 0.0495-0.01909 0.14293v0.27604h-0.13725v-0.80285h0.13725v0.17852q0 0.0346-0.0062 0.12332h0.0072q0.04128-0.0846 0.12693-0.0846 0.07894 0 0.11919 0.0537 0.04025 0.0532 0.04025 0.15686v0.37511z"/>
				<path d="m17.6 122.37h-0.13725v-0.57479h0.13725zm-0.14292-0.72494q0-0.0341 0.01961-0.0537 0.02012-0.0201 0.05573-0.0201 0.03354 0 0.05366 0.0201 0.02012 0.0196 0.02012 0.0537 0 0.0351-0.02064 0.0547-0.02064 0.0191-0.05314 0.0191-0.03406 0-0.05469-0.0191-0.02064-0.0196-0.02064-0.0547z"/>
			</g>
		</g>
		<g transform="matrix(3.2533 0 0 3.2533 -88.63 -871.26)">
			<g transform="matrix(1.92 .75887 -.75887 1.92 -234.69 -887.49)">
				<g transform="rotate(-9.1961 290.54 412.25)" fill="#4d4d4d">
					<path d="m289.61 412.6 4.1903-1.44 0.0209-6e-3s0.0126-7.8e-4 0.0183 8.6e-4c0.0223 9e-3 0.0185 0.0208 0.0182 0.0272-4e-3 0.0181-0.0143 0.0217-0.0143 0.0217l-4.1687 1.5912-0.0146-0.072-0.0143-0.0432z"/>
					<path d="m289.62 412.6c-0.0524 0.0226-0.0861 0.0899-0.0627 0.14373 0.0307 0.0469 0.0788 0.0614 0.1254 0.0511-2e-3 -0.0566-0.0136-0.0949-0.0353-0.15225-5e-3 -0.01-0.0239-0.0342-0.0295-0.0436z"/>
				</g>
				<ellipse cx="289.7" cy="412.83" rx=".063066" ry=".059428" fill="url(#g)"/>
			</g>
			<path d="m8.1442 124.92 0.076005-0.0585 0.070158-0.0351 9.1206-1.0524 0.04677 0.0117-8.9861 1.1634-0.040926-0.0468-0.099391-0.0468-0.093545 0.0117z" fill="url(#h)"/>
			<path d="m8.2377 125.23 0.14616-0.0643 0.046772-0.0468 9.0387-1.2628-0.03508 0.0351-9.0095 1.3447-0.12278 0.0117z" fill="#42484c" fill-opacity=".72157"/>
			<text transform="rotate(-7.0969)" x="-6.6295662" y="125.1535" fill="#000000" font-family="'Open Sans'" font-size=".13449px" letter-spacing="0px" stroke-width=".016811" text-align="center" text-anchor="middle" word-spacing="0px" style="font-feature-settings:normal;font-variant-caps:normal;font-variant-ligatures:normal;font-variant-numeric:normal;line-height:1.25" xml:space="preserve"><tspan x="-6.6295662" y="125.1535" stroke-width=".016811">gitohashi</tspan></text>
			<text transform="rotate(-7.0969)" x="-6.6333256" y="125.14806" fill="#999999" font-family="'Open Sans'" font-size=".13449px" letter-spacing="0px" stroke-width=".016811" text-align="center" text-anchor="middle" word-spacing="0px" style="font-feature-settings:normal;font-variant-caps:normal;font-variant-ligatures:normal;font-variant-numeric:normal;line-height:1.25" xml:space="preserve"><tspan x="-6.6333256" y="125.14806" fill="#999999" stroke-width=".016811">gitohashi</tspan></text>
		</g>
		<g transform="matrix(3.2318 -.37344 .37344 3.2318 -133.43 -863.51)">
			<g transform="matrix(1.92 .75887 -.75887 1.92 -234.69 -887.49)">
				<g transform="rotate(-9.1961 290.54 412.25)" fill="#4d4d4d">
					<path d="m289.61 412.6 4.1903-1.44 0.0209-6e-3s0.0126-7.8e-4 0.0183 8.6e-4c0.0223 9e-3 0.0185 0.0208 0.0182 0.0272-4e-3 0.0181-0.0143 0.0217-0.0143 0.0217l-4.1687 1.5912-0.0146-0.072-0.0143-0.0432z"/>
					<path d="m289.62 412.6c-0.0524 0.0226-0.0861 0.0899-0.0627 0.14373 0.0307 0.0469 0.0788 0.0614 0.1254 0.0511-2e-3 -0.0566-0.0136-0.0949-0.0353-0.15225-5e-3 -0.01-0.0239-0.0342-0.0295-0.0436z"/>
				</g>
				<ellipse cx="289.7" cy="412.83" rx=".063066" ry=".059428" fill="url(#g)"/>
			</g>
			<path d="m8.1442 124.92 0.076005-0.0585 0.070158-0.0351 9.1206-1.0524 0.04677 0.0117-8.9861 1.1634-0.040926-0.0468-0.099391-0.0468-0.093545 0.0117z" fill="url(#h)"/>
			<path d="m8.2377 125.23 0.14616-0.0643 0.046772-0.0468 9.0387-1.2628-0.03508 0.0351-9.0095 1.3447-0.12278 0.0117z" fill="#42484c" fill-opacity=".72157"/>
			<text transform="rotate(-7.0969)" x="-6.6295662" y="125.1535" fill="#000000" font-family="'Open Sans'" font-size=".13449px" letter-spacing="0px" stroke-width=".016811" text-align="center" text-anchor="middle" word-spacing="0px" style="font-feature-settings:normal;font-variant-caps:normal;font-variant-ligatures:normal;font-variant-numeric:normal;line-height:1.25" xml:space="preserve"><tspan x="-6.6295662" y="125.1535" stroke-width=".016811">gitohashi</tspan></text>
			<text transform="rotate(-7.0969)" x="-6.6333256" y="125.14806" fill="#999999" font-family="'Open Sans'" font-size=".13449px" letter-spacing="0px" stroke-width=".016811" text-align="center" text-anchor="middle" word-spacing="0px" style="font-feature-settings:normal;font-variant-caps:normal;font-variant-ligatures:normal;font-variant-numeric:normal;line-height:1.25" xml:space="preserve"><tspan x="-6.6333256" y="125.14806" fill="#999999" stroke-width=".016811">gitohashi</tspan></text>
		</g>
		<g>
			<g transform="matrix(3.2533 -.0045713 .0045713 3.2533 -89.572 -861.43)" stroke-width=".13209" style="font-feature-settings:normal;font-variant-caps:normal;font-variant-ligatures:normal;font-variant-numeric:normal" aria-label="gitohashi">
				<g stroke-width=".13209">
					<path d="m14.309 121.8v0.0805l-0.06863 0.0155q0.02012 0.0361 0.02012 0.0908 0 0.0913-0.04953 0.14293-0.04953 0.0516-0.13828 0.0516-0.0258 0-0.03818-4e-3 -0.0098 9e-3 -0.01858 0.0196-0.0088 0.0108-0.0088 0.0268 0 0.0361 0.06243 0.0361h0.08307q0.07327 0 0.11248 0.0397 0.03973 0.0392 0.03973 0.11868 0 0.1001-0.06708 0.15479-0.06708 0.0547-0.19297 0.0547-0.09545 0-0.14705-0.0418-0.0516-0.0413-0.0516-0.11816 0-0.048 0.02941-0.0846 0.02941-0.0361 0.08152-0.0526-0.02631-0.0103-0.04334-0.032-0.01651-0.0217-0.01651-0.0506 0-0.0175 0.0052-0.0315 0.0052-0.0144 0.01445-0.0268 0.0098-0.0129 0.03921-0.0377-0.0356-0.0217-0.05624-0.0666t-0.02064-0.0996q0-0.0944 0.04953-0.14602 0.04953-0.0516 0.14189-0.0516 0.01754 0 0.04025 4e-3 0.0227 4e-3 0.03457 8e-3zm-0.33796 0.65735q0 0.0341 0.02116 0.0521 0.02167 0.0186 0.0614 0.0186 0.06243 0 0.09339-0.0237 0.03147-0.0237 0.03147-0.065 0-0.0325-0.01703-0.0459-0.01651-0.0134-0.06243-0.0134h-0.06656q-0.02786 0-0.04489 0.0206-0.01651 0.0212-0.01651 0.0568zm0.04231-0.47057q0 0.10165 0.05727 0.10165 0.05573 0 0.05573-0.10268 0-0.10526-0.05573-0.10526-0.05727 0-0.05727 0.10629z"/>
					<path d="m14.517 122.37h-0.13725v-0.57479h0.13725zm-0.14292-0.72494q0-0.0341 0.01961-0.0537 0.02012-0.0201 0.05572-0.0201 0.03354 0 0.05366 0.0201 0.02012 0.0196 0.02012 0.0537 0 0.0351-0.02064 0.0547-0.02064 0.0191-0.05315 0.0191-0.03405 0-0.05469-0.0191-0.02064-0.0196-0.02064-0.0547z"/>
					<path d="m14.834 122.26q0.02889 0 0.06243-0.0145v0.10732q-0.03354 0.0232-0.10062 0.0232-0.07482 0-0.11094-0.0444-0.03612-0.0449-0.03612-0.13415v-0.29772h-0.05573v-0.0614l0.07172-0.0495 0.03509-0.12177h0.08772v0.12384h0.10423v0.10887h-0.10423v0.30236q0 0.0578 0.04644 0.0578z"/>
				</g>
				<g fill="#800000">
					<path d="m15.403 122.08q0 0.14138-0.05985 0.22032-0.05985 0.0784-0.16408 0.0784-0.06604 0-0.11661-0.0361-0.05057-0.0361-0.07791-0.10371-0.02735-0.0681-0.02735-0.15892 0-0.13983 0.05934-0.21825 0.05934-0.0789 0.1646-0.0789 0.10165 0 0.1615 0.0805 0.06037 0.08 0.06037 0.21671zm-0.30546 0q0 0.0898 0.01961 0.1357t0.06295 0.0459q0.08256 0 0.08256-0.18163 0-0.0903-0.02012-0.13467-0.01961-0.0449-0.06243-0.0449-0.04334 0-0.06295 0.0449-0.01961 0.0444-0.01961 0.13467z"/>
					<path d="m15.786 122.37v-0.3426q0-0.12642-0.06346-0.12642-0.04747 0-0.06656 0.05-0.01909 0.0495-0.01909 0.14293v0.27604h-0.13725v-0.80285h0.13725v0.17852q0 0.0346-0.0062 0.12332h0.0072q0.04128-0.0846 0.12693-0.0846 0.07895 0 0.11919 0.0537 0.04025 0.0532 0.04025 0.15686v0.37511z"/>
					<path d="m16.318 122.37-0.02735-0.0784h-0.0031q-0.03044 0.0506-0.06295 0.0697t-0.08204 0.0191q-0.06347 0-0.1001-0.0475-0.03612-0.0475-0.03612-0.13209 0-0.0908 0.04953-0.13467 0.05005-0.0444 0.14912-0.049l0.07636-3e-3v-0.0413q0-0.0805-0.06966-0.0805-0.0516 0-0.11867 0.0403l-0.04747-0.0949q0.08565-0.0542 0.18627-0.0542 0.09133 0 0.1388 0.0526 0.04799 0.0521 0.04799 0.14808v0.38595zm-0.11919-0.097q0.03767 0 0.05985-0.0335 0.0227-0.0341 0.0227-0.0903v-0.0485l-0.04231 2e-3q-0.04695 3e-3 -0.06914 0.0268-0.02167 0.0242-0.02167 0.0722 0 0.0712 0.05057 0.0712z"/>
					<path d="m16.838 122.2q0 0.0841-0.04953 0.13157-0.04902 0.047-0.14499 0.047-0.08514 0-0.14086-0.0335v-0.11919q0.02838 0.0196 0.06604 0.0325 0.03818 0.0129 0.06708 0.0129 0.03199 0 0.0485-0.0155 0.01703-0.016 0.01703-0.0418 0-0.0263-0.01754-0.0459t-0.0645-0.048q-0.06243-0.0371-0.08978-0.0789-0.02683-0.0423-0.02683-0.0996 0-0.0733 0.05005-0.11609 0.05057-0.0428 0.13828-0.0428 0.07636 0 0.14396 0.0403l-0.04489 0.0986q-0.05521-0.0299-0.097-0.0299-0.02631 0-0.03973 0.0139-0.0129 0.0139-0.0129 0.0341 0 0.0232 0.016 0.0413 0.01651 0.0181 0.06089 0.0449 0.05366 0.0325 0.07533 0.0552t0.03354 0.0516 0.01187 0.0676z"/>
					<path d="m17.212 122.37v-0.3426q0-0.12642-0.06347-0.12642-0.04747 0-0.06656 0.05-0.01909 0.0495-0.01909 0.14293v0.27604h-0.13725v-0.80285h0.13725v0.17852q0 0.0346-0.0062 0.12332h0.0072q0.04128-0.0846 0.12693-0.0846 0.07894 0 0.11919 0.0537 0.04025 0.0532 0.04025 0.15686v0.37511z"/>
					<path d="m17.6 122.37h-0.13725v-0.57479h0.13725zm-0.14292-0.72494q0-0.0341 0.01961-0.0537 0.02012-0.0201 0.05573-0.0201 0.03354 0 0.05366 0.0201 0.02012 0.0196 0.02012 0.0537 0 0.0351-0.02064 0.0547-0.02064 0.0191-0.05314 0.0191-0.03406 0-0.05469-0.0191-0.02064-0.0196-0.02064-0.0547z"/>
				</g>
			</g>
			<g transform="matrix(6.9687 -.0097919 .0097919 6.9687 -106.86 -1286.6)" fill="#fff" filter="url(#aj)" stroke="#fff" stroke-width=".075" style="font-feature-settings:normal;font-variant-caps:normal;font-variant-ligatures:normal;font-variant-numeric:normal" aria-label="gitohashi">
				<path d="m14.309 121.8v0.0805l-0.06863 0.0155q0.02012 0.0361 0.02012 0.0908 0 0.0913-0.04953 0.14293-0.04953 0.0516-0.13828 0.0516-0.0258 0-0.03818-4e-3 -0.0098 9e-3 -0.01858 0.0196-0.0088 0.0108-0.0088 0.0268 0 0.0361 0.06243 0.0361h0.08307q0.07327 0 0.11248 0.0397 0.03973 0.0392 0.03973 0.11868 0 0.1001-0.06708 0.15479-0.06708 0.0547-0.19297 0.0547-0.09545 0-0.14705-0.0418-0.0516-0.0413-0.0516-0.11816 0-0.048 0.02941-0.0846 0.02941-0.0361 0.08152-0.0526-0.02631-0.0103-0.04334-0.032-0.01651-0.0217-0.01651-0.0506 0-0.0175 0.0052-0.0315 0.0052-0.0144 0.01445-0.0268 0.0098-0.0129 0.03921-0.0377-0.0356-0.0217-0.05624-0.0666t-0.02064-0.0996q0-0.0944 0.04953-0.14602 0.04953-0.0516 0.14189-0.0516 0.01754 0 0.04025 4e-3 0.0227 4e-3 0.03457 8e-3zm-0.33796 0.65735q0 0.0341 0.02116 0.0521 0.02167 0.0186 0.0614 0.0186 0.06243 0 0.09339-0.0237 0.03147-0.0237 0.03147-0.065 0-0.0325-0.01703-0.0459-0.01651-0.0134-0.06243-0.0134h-0.06656q-0.02786 0-0.04489 0.0206-0.01651 0.0212-0.01651 0.0568zm0.04231-0.47057q0 0.10165 0.05727 0.10165 0.05573 0 0.05573-0.10268 0-0.10526-0.05573-0.10526-0.05727 0-0.05727 0.10629z"/>
				<path d="m14.517 122.37h-0.13725v-0.57479h0.13725zm-0.14292-0.72494q0-0.0341 0.01961-0.0537 0.02012-0.0201 0.05572-0.0201 0.03354 0 0.05366 0.0201 0.02012 0.0196 0.02012 0.0537 0 0.0351-0.02064 0.0547-0.02064 0.0191-0.05315 0.0191-0.03405 0-0.05469-0.0191-0.02064-0.0196-0.02064-0.0547z"/>
				<path d="m14.834 122.26q0.02889 0 0.06243-0.0145v0.10732q-0.03354 0.0232-0.10062 0.0232-0.07482 0-0.11094-0.0444-0.03612-0.0449-0.03612-0.13415v-0.29772h-0.05573v-0.0614l0.07172-0.0495 0.03509-0.12177h0.08772v0.12384h0.10423v0.10887h-0.10423v0.30236q0 0.0578 0.04644 0.0578z"/>
				<path d="m15.403 122.08q0 0.14138-0.05985 0.22032-0.05985 0.0784-0.16408 0.0784-0.06604 0-0.11661-0.0361-0.05057-0.0361-0.07791-0.10371-0.02735-0.0681-0.02735-0.15892 0-0.13983 0.05934-0.21825 0.05934-0.0789 0.1646-0.0789 0.10165 0 0.1615 0.0805 0.06037 0.08 0.06037 0.21671zm-0.30546 0q0 0.0898 0.01961 0.1357t0.06295 0.0459q0.08256 0 0.08256-0.18163 0-0.0903-0.02012-0.13467-0.01961-0.0449-0.06243-0.0449-0.04334 0-0.06295 0.0449-0.01961 0.0444-0.01961 0.13467z"/>
				<path d="m15.786 122.37v-0.3426q0-0.12642-0.06346-0.12642-0.04747 0-0.06656 0.05-0.01909 0.0495-0.01909 0.14293v0.27604h-0.13725v-0.80285h0.13725v0.17852q0 0.0346-0.0062 0.12332h0.0072q0.04128-0.0846 0.12693-0.0846 0.07895 0 0.11919 0.0537 0.04025 0.0532 0.04025 0.15686v0.37511z"/>
				<path d="m16.318 122.37-0.02735-0.0784h-0.0031q-0.03044 0.0506-0.06295 0.0697t-0.08204 0.0191q-0.06347 0-0.1001-0.0475-0.03612-0.0475-0.03612-0.13209 0-0.0908 0.04953-0.13467 0.05005-0.0444 0.14912-0.049l0.07636-3e-3v-0.0413q0-0.0805-0.06966-0.0805-0.0516 0-0.11867 0.0403l-0.04747-0.0949q0.08565-0.0542 0.18627-0.0542 0.09133 0 0.1388 0.0526 0.04799 0.0521 0.04799 0.14808v0.38595zm-0.11919-0.097q0.03767 0 0.05985-0.0335 0.0227-0.0341 0.0227-0.0903v-0.0485l-0.04231 2e-3q-0.04695 3e-3 -0.06914 0.0268-0.02167 0.0242-0.02167 0.0722 0 0.0712 0.05057 0.0712z"/>
				<path d="m16.838 122.2q0 0.0841-0.04953 0.13157-0.04902 0.047-0.14499 0.047-0.08514 0-0.14086-0.0335v-0.11919q0.02838 0.0196 0.06604 0.0325 0.03818 0.0129 0.06708 0.0129 0.03199 0 0.0485-0.0155 0.01703-0.016 0.01703-0.0418 0-0.0263-0.01754-0.0459t-0.0645-0.048q-0.06243-0.0371-0.08978-0.0789-0.02683-0.0423-0.02683-0.0996 0-0.0733 0.05005-0.11609 0.05057-0.0428 0.13828-0.0428 0.07636 0 0.14396 0.0403l-0.04489 0.0986q-0.05521-0.0299-0.097-0.0299-0.02631 0-0.03973 0.0139-0.0129 0.0139-0.0129 0.0341 0 0.0232 0.016 0.0413 0.01651 0.0181 0.06089 0.0449 0.05366 0.0325 0.07533 0.0552t0.03354 0.0516 0.01187 0.0676z"/>
				<path d="m17.212 122.37v-0.3426q0-0.12642-0.06347-0.12642-0.04747 0-0.06656 0.05-0.01909 0.0495-0.01909 0.14293v0.27604h-0.13725v-0.80285h0.13725v0.17852q0 0.0346-0.0062 0.12332h0.0072q0.04128-0.0846 0.12693-0.0846 0.07894 0 0.11919 0.0537 0.04025 0.0532 0.04025 0.15686v0.37511z"/>
				<path d="m17.6 122.37h-0.13725v-0.57479h0.13725zm-0.14292-0.72494q0-0.0341 0.01961-0.0537 0.02012-0.0201 0.05573-0.0201 0.03354 0 0.05366 0.0201 0.02012 0.0196 0.02012 0.0537 0 0.0351-0.02064 0.0547-0.02064 0.0191-0.05314 0.0191-0.03406 0-0.05469-0.0191-0.02064-0.0196-0.02064-0.0547z"/>
			</g>
			<g transform="matrix(6.9687 -.0097919 .0097919 6.9687 -106.83 -1286.6)" stroke-width=".13209" style="font-feature-settings:normal;font-variant-caps:normal;font-variant-ligatures:normal;font-variant-numeric:normal" aria-label="gitohashi">
				<g stroke-width=".13209">
					<path d="m14.309 121.8v0.0805l-0.06863 0.0155q0.02012 0.0361 0.02012 0.0908 0 0.0913-0.04953 0.14293-0.04953 0.0516-0.13828 0.0516-0.0258 0-0.03818-4e-3 -0.0098 9e-3 -0.01858 0.0196-0.0088 0.0108-0.0088 0.0268 0 0.0361 0.06243 0.0361h0.08307q0.07327 0 0.11248 0.0397 0.03973 0.0392 0.03973 0.11868 0 0.1001-0.06708 0.15479-0.06708 0.0547-0.19297 0.0547-0.09545 0-0.14705-0.0418-0.0516-0.0413-0.0516-0.11816 0-0.048 0.02941-0.0846 0.02941-0.0361 0.08152-0.0526-0.02631-0.0103-0.04334-0.032-0.01651-0.0217-0.01651-0.0506 0-0.0175 0.0052-0.0315 0.0052-0.0144 0.01445-0.0268 0.0098-0.0129 0.03921-0.0377-0.0356-0.0217-0.05624-0.0666t-0.02064-0.0996q0-0.0944 0.04953-0.14602 0.04953-0.0516 0.14189-0.0516 0.01754 0 0.04025 4e-3 0.0227 4e-3 0.03457 8e-3zm-0.33796 0.65735q0 0.0341 0.02116 0.0521 0.02167 0.0186 0.0614 0.0186 0.06243 0 0.09339-0.0237 0.03147-0.0237 0.03147-0.065 0-0.0325-0.01703-0.0459-0.01651-0.0134-0.06243-0.0134h-0.06656q-0.02786 0-0.04489 0.0206-0.01651 0.0212-0.01651 0.0568zm0.04231-0.47057q0 0.10165 0.05727 0.10165 0.05573 0 0.05573-0.10268 0-0.10526-0.05573-0.10526-0.05727 0-0.05727 0.10629z"/>
					<path d="m14.517 122.37h-0.13725v-0.57479h0.13725zm-0.14292-0.72494q0-0.0341 0.01961-0.0537 0.02012-0.0201 0.05572-0.0201 0.03354 0 0.05366 0.0201 0.02012 0.0196 0.02012 0.0537 0 0.0351-0.02064 0.0547-0.02064 0.0191-0.05315 0.0191-0.03405 0-0.05469-0.0191-0.02064-0.0196-0.02064-0.0547z"/>
					<path d="m14.834 122.26q0.02889 0 0.06243-0.0145v0.10732q-0.03354 0.0232-0.10062 0.0232-0.07482 0-0.11094-0.0444-0.03612-0.0449-0.03612-0.13415v-0.29772h-0.05573v-0.0614l0.07172-0.0495 0.03509-0.12177h0.08772v0.12384h0.10423v0.10887h-0.10423v0.30236q0 0.0578 0.04644 0.0578z"/>
				</g>
				<g fill="#800000">
					<path d="m15.403 122.08q0 0.14138-0.05985 0.22032-0.05985 0.0784-0.16408 0.0784-0.06604 0-0.11661-0.0361-0.05057-0.0361-0.07791-0.10371-0.02735-0.0681-0.02735-0.15892 0-0.13983 0.05934-0.21825 0.05934-0.0789 0.1646-0.0789 0.10165 0 0.1615 0.0805 0.06037 0.08 0.06037 0.21671zm-0.30546 0q0 0.0898 0.01961 0.1357t0.06295 0.0459q0.08256 0 0.08256-0.18163 0-0.0903-0.02012-0.13467-0.01961-0.0449-0.06243-0.0449-0.04334 0-0.06295 0.0449-0.01961 0.0444-0.01961 0.13467z"/>
					<path d="m15.786 122.37v-0.3426q0-0.12642-0.06346-0.12642-0.04747 0-0.06656 0.05-0.01909 0.0495-0.01909 0.14293v0.27604h-0.13725v-0.80285h0.13725v0.17852q0 0.0346-0.0062 0.12332h0.0072q0.04128-0.0846 0.12693-0.0846 0.07895 0 0.11919 0.0537 0.04025 0.0532 0.04025 0.15686v0.37511z"/>
					<path d="m16.318 122.37-0.02735-0.0784h-0.0031q-0.03044 0.0506-0.06295 0.0697t-0.08204 0.0191q-0.06347 0-0.1001-0.0475-0.03612-0.0475-0.03612-0.13209 0-0.0908 0.04953-0.13467 0.05005-0.0444 0.14912-0.049l0.07636-3e-3v-0.0413q0-0.0805-0.06966-0.0805-0.0516 0-0.11867 0.0403l-0.04747-0.0949q0.08565-0.0542 0.18627-0.0542 0.09133 0 0.1388 0.0526 0.04799 0.0521 0.04799 0.14808v0.38595zm-0.11919-0.097q0.03767 0 0.05985-0.0335 0.0227-0.0341 0.0227-0.0903v-0.0485l-0.04231 2e-3q-0.04695 3e-3 -0.06914 0.0268-0.02167 0.0242-0.02167 0.0722 0 0.0712 0.05057 0.0712z"/>
					<path d="m16.838 122.2q0 0.0841-0.04953 0.13157-0.04902 0.047-0.14499 0.047-0.08514 0-0.14086-0.0335v-0.11919q0.02838 0.0196 0.06604 0.0325 0.03818 0.0129 0.06708 0.0129 0.03199 0 0.0485-0.0155 0.01703-0.016 0.01703-0.0418 0-0.0263-0.01754-0.0459t-0.0645-0.048q-0.06243-0.0371-0.08978-0.0789-0.02683-0.0423-0.02683-0.0996 0-0.0733 0.05005-0.11609 0.05057-0.0428 0.13828-0.0428 0.07636 0 0.14396 0.0403l-0.04489 0.0986q-0.05521-0.0299-0.097-0.0299-0.02631 0-0.03973 0.0139-0.0129 0.0139-0.0129 0.0341 0 0.0232 0.016 0.0413 0.01651 0.0181 0.06089 0.0449 0.05366 0.0325 0.07533 0.0552t0.03354 0.0516 0.01187 0.0676z"/>
					<path d="m17.212 122.37v-0.3426q0-0.12642-0.06347-0.12642-0.04747 0-0.06656 0.05-0.01909 0.0495-0.01909 0.14293v0.27604h-0.13725v-0.80285h0.13725v0.17852q0 0.0346-0.0062 0.12332h0.0072q0.04128-0.0846 0.12693-0.0846 0.07894 0 0.11919 0.0537 0.04025 0.0532 0.04025 0.15686v0.37511z"/>
					<path d="m17.6 122.37h-0.13725v-0.57479h0.13725zm-0.14292-0.72494q0-0.0341 0.01961-0.0537 0.02012-0.0201 0.05573-0.0201 0.03354 0 0.05366 0.0201 0.02012 0.0196 0.02012 0.0537 0 0.0351-0.02064 0.0547-0.02064 0.0191-0.05314 0.0191-0.03406 0-0.05469-0.0191-0.02064-0.0196-0.02064-0.0547z"/>
				</g>
			</g>
		</g>
	</g>
</svg>
