<?xml version="1.0" encoding="UTF-8"?>
<!-- Created with Inkscape (http://www.inkscape.org/) -->
<svg width="163.94mm" height="216.64mm" version="1.1" viewBox="0 0 163.94383 216.63525" xmlns="http://www.w3.org/2000/svg" xmlns:cc="http://creativecommons.org/ns#" xmlns:dc="http://purl.org/dc/elements/1.1/" xmlns:rdf="http://www.w3.org/1999/02/22-rdf-syntax-ns#" xmlns:xlink="http://www.w3.org/1999/xlink">
	<defs>
		<marker id="z" overflow="visible" orient="auto">
			<path transform="matrix(.2 0 0 .2 1.2 0)" d="m0 0 5-5-17.5 5 17.5 5z" fill-rule="evenodd" stroke="#000" stroke-width="1pt"/>
		</marker>
		<marker id="i" overflow="visible" orient="auto">
			<path transform="matrix(-.2 0 0 -.2 -1.2 0)" d="m0 0 5-5-17.5 5 17.5 5z" fill-rule="evenodd" stroke="#000" stroke-width="1pt"/>
		</marker>
		<marker id="ad" overflow="visible" orient="auto">
			<path transform="matrix(.2 0 0 .2 1.2 0)" d="m0 0 5-5-17.5 5 17.5 5z" fill-rule="evenodd" stroke="#000" stroke-width="1pt"/>
		</marker>
		<marker id="l" overflow="visible" orient="auto">
			<path transform="matrix(-.2 0 0 -.2 -1.2 0)" d="m0 0 5-5-17.5 5 17.5 5z" fill-rule="evenodd" stroke="#000" stroke-width="1pt"/>
		</marker>
		<marker id="aa" overflow="visible" orient="auto">
			<path transform="matrix(.2 0 0 .2 1.2 0)" d="m0 0 5-5-17.5 5 17.5 5z" fill-rule="evenodd" stroke="#000" stroke-width="1pt"/>
		</marker>
		<marker id="c" overflow="visible" orient="auto">
			<path transform="matrix(-.2 0 0 -.2 -1.2 0)" d="m0 0 5-5-17.5 5 17.5 5z" fill-rule="evenodd" stroke="#000" stroke-width="1pt"/>
		</marker>
		<filter id="r" x="-.020287" y="-.057556" width="1.0406" height="1.1151" color-interpolation-filters="sRGB">
			<feGaussianBlur stdDeviation="0.0097149"/>
		</filter>
		<filter id="u" x="-.037101" y="-.099168" width="1.0742" height="1.1983" color-interpolation-filters="sRGB">
			<feGaussianBlur stdDeviation="0.01776672"/>
		</filter>
		<filter id="q" x="-.020852" y="-.022404" width="1.0417" height="1.0448" color-interpolation-filters="sRGB">
			<feGaussianBlur stdDeviation="0.010260666"/>
		</filter>
		<filter id="t" x="-.016301" y="-.069385" width="1.0326" height="1.1388" color-interpolation-filters="sRGB">
			<feGaussianBlur stdDeviation="0.009322423"/>
		</filter>
		<filter id="s" x="-.0062326" y="-.0085229" width="1.0125" height="1.017" color-interpolation-filters="sRGB">
			<feGaussianBlur stdDeviation="0.004594992"/>
		</filter>
		<filter id="v" x="-.054324" y="-.11802" width="1.1086" height="1.236" color-interpolation-filters="sRGB">
			<feGaussianBlur stdDeviation="0.023580879"/>
		</filter>
		<radialGradient id="a" cx="289.72" cy="412.83" r=".053743" gradientTransform="matrix(1.1735 0 0 1.1058 -50.276 -43.662)" gradientUnits="userSpaceOnUse" xlink:href="#n"/>
		<linearGradient id="n">
			<stop stop-color="#c2c9ca" stop-opacity=".37603" offset="0"/>
			<stop stop-color="#fff" stop-opacity="0" offset="1"/>
		</linearGradient>
		<linearGradient id="b" x1="8.4716" x2="17.364" y1="124.88" y2="123.79" gradientUnits="userSpaceOnUse" xlink:href="#m"/>
		<linearGradient id="m">
			<stop stop-color="#c8c6ca" stop-opacity="0" offset="0"/>
			<stop stop-color="#c8c6ca" stop-opacity=".72157" offset=".39592"/>
			<stop stop-color="#c8c6ca" stop-opacity=".41961" offset=".48155"/>
			<stop stop-color="#c8c6ca" stop-opacity="0" offset="1"/>
		</linearGradient>
		<filter id="o" x="-.031351" y="-.045733" width="1.0627" height="1.0915" color-interpolation-filters="sRGB">
			<feGaussianBlur stdDeviation="0.40133499"/>
		</filter>
		<marker id="y" overflow="visible" orient="auto">
			<path transform="matrix(.2 0 0 .2 1.2 0)" d="m0 0 5-5-17.5 5 17.5 5z" fill-rule="evenodd" stroke="#000" stroke-width="1pt"/>
		</marker>
		<marker id="f" overflow="visible" orient="auto">
			<path transform="matrix(-.2 0 0 -.2 -1.2 0)" d="m0 0 5-5-17.5 5 17.5 5z" fill-rule="evenodd" stroke="#000" stroke-width="1pt"/>
		</marker>
		<marker id="g" overflow="visible" orient="auto">
			<path transform="matrix(-.2 0 0 -.2 -1.2 0)" d="m0 0 5-5-17.5 5 17.5 5z" fill-rule="evenodd" stroke="#000" stroke-width="1pt"/>
		</marker>
		<marker id="ac" overflow="visible" orient="auto">
			<path transform="matrix(.2 0 0 .2 1.2 0)" d="m0 0 5-5-17.5 5 17.5 5z" fill-rule="evenodd" stroke="#000" stroke-width="1pt"/>
		</marker>
		<marker id="d" overflow="visible" orient="auto">
			<path transform="matrix(-.2 0 0 -.2 -1.2 0)" d="m0 0 5-5-17.5 5 17.5 5z" fill-rule="evenodd" stroke="#000" stroke-width="1pt"/>
		</marker>
		<marker id="ab" overflow="visible" orient="auto">
			<path transform="matrix(.2 0 0 .2 1.2 0)" d="m0 0 5-5-17.5 5 17.5 5z" fill-rule="evenodd" stroke="#000" stroke-width="1pt"/>
		</marker>
		<marker id="k" overflow="visible" orient="auto">
			<path transform="matrix(-.2 0 0 -.2 -1.2 0)" d="m0 0 5-5-17.5 5 17.5 5z" fill-rule="evenodd" stroke="#000" stroke-width="1pt"/>
		</marker>
		<marker id="x" overflow="visible" orient="auto">
			<path transform="matrix(.2 0 0 .2 1.2 0)" d="m0 0 5-5-17.5 5 17.5 5z" fill-rule="evenodd" stroke="#000" stroke-width="1pt"/>
		</marker>
		<marker id="j" overflow="visible" orient="auto">
			<path transform="matrix(-.2 0 0 -.2 -1.2 0)" d="m0 0 5-5-17.5 5 17.5 5z" fill-rule="evenodd" stroke="#000" stroke-width="1pt"/>
		</marker>
		<marker id="w" overflow="visible" orient="auto">
			<path transform="matrix(.2 0 0 .2 1.2 0)" d="m0 0 5-5-17.5 5 17.5 5z" fill-rule="evenodd" stroke="#000" stroke-width="1pt"/>
		</marker>
		<marker id="e" overflow="visible" orient="auto">
			<path transform="matrix(-.2 0 0 -.2 -1.2 0)" d="m0 0 5-5-17.5 5 17.5 5z" fill-rule="evenodd" stroke="#000" stroke-width="1pt"/>
		</marker>
		<marker id="h" overflow="visible" orient="auto">
			<path transform="matrix(-.2 0 0 -.2 -1.2 0)" d="m0 0 5-5-17.5 5 17.5 5z" fill-rule="evenodd" stroke="#000" stroke-width="1pt"/>
		</marker>
		<filter id="p" x="-.03516" y="-.026161" width="1.0703" height="1.0523" color-interpolation-filters="sRGB">
			<feGaussianBlur stdDeviation="0.73415599"/>
		</filter>
	</defs>
	<metadata>
		<rdf:RDF>
			<cc:Work rdf:about="">
				<dc:format>image/svg+xml</dc:format>
				<dc:type rdf:resource="http://purl.org/dc/dcmitype/StillImage"/>
				<dc:title/>
			</cc:Work>
		</rdf:RDF>
	</metadata>
	<g transform="translate(415.35 512.84)">
		<rect transform="matrix(3.0565 0 0 3.0565 401.07 -1477)" x="-265.34" y="317.2" width="50.113" height="67.352" filter="url(#p)"/>
		<rect x="-411.39" y="-509.09" width="153.17" height="205.86" fill="#f9f9f9"/>
		<g transform="matrix(3.0565 0 0 3.0565 -496.6 -880.17)">
			<g fill-opacity=".96694">
				<rect x="56.207" y="125.64" width="4.002" height="4.002"/>
				<rect x="56.337" y="126.01" width="3.7662" height="3.5157" fill="#e6e6e6"/>
				<rect x="50.767" y="125.65" width="4.002" height="4.002"/>
				<rect x="50.898" y="126.01" width="3.7662" height="3.5157" fill="#e6e6e6"/>
			</g>
			<g fill="none" stroke="#000" stroke-width=".2521px">
				<path d="m51.444 126.56h2.6628"/>
				<path d="m51.429 128.12h2.6628"/>
				<path d="m51.447 127.33h2.6628"/>
				<path d="m51.442 128.89h2.6628"/>
			</g>
			<rect x="61.599" y="125.64" width="4.002" height="4.002" fill-opacity=".96694"/>
			<rect x="61.73" y="126.01" width="3.7662" height="3.5157" fill="#e6e6e6" fill-opacity=".96694"/>
			<g fill="none" stroke="#000" stroke-width=".2521px">
				<path d="m62.276 126.56h2.6628"/>
				<path d="m62.261 128.11h2.6628"/>
				<path d="m62.279 127.33h2.6628"/>
				<path d="m62.274 128.88h2.6628"/>
			</g>
			<rect x="66.768" y="125.64" width="4.002" height="4.002" fill-opacity=".96694"/>
			<rect x="66.899" y="126.01" width="3.7662" height="3.5157" fill="#e6e6e6" fill-opacity=".96694"/>
			<g fill="none" stroke="#000" stroke-width=".2521px">
				<path d="m67.446 126.56h2.6628"/>
				<path d="m67.431 128.11h2.6628"/>
				<path d="m67.449 127.33h2.6628"/>
				<path d="m67.443 128.88h2.6628"/>
				<path d="m56.884 126.56h2.6628"/>
				<path d="m56.869 128.11h2.6628"/>
				<path d="m56.887 127.33h2.6628"/>
				<path d="m56.881 128.88h2.6628"/>
			</g>
		</g>
		<path d="m-323.32-482.82 4.1235-4.8344 5.4201 3.0824-2.1791 0.54603 2.3757 16.814 2.5776-0.4222-4.5552 5.6614-5.6312-4.3711 2.5474-0.6064-2.6534-16.202z" fill="#80b3ff"/>
		<g fill="#b9b5ad" fill-opacity=".44215">
			<ellipse cx="-283.96" cy="-467.3" rx="8.7004" ry="9.0237"/>
			<ellipse cx="-297.31" cy="-457.44" rx="10.079" ry="10.453"/>
			<ellipse cx="-306.6" cy="-466.3" rx="10.079" ry="10.453"/>
			<ellipse cx="-287.63" cy="-458.01" rx="10.768" ry="11.168"/>
			<ellipse cx="-302.45" cy="-456.3" rx="10.079" ry="10.453"/>
			<ellipse cx="-293.59" cy="-456.58" rx="10.079" ry="10.453"/>
			<ellipse cx="-290.16" cy="-467.73" rx="10.079" ry="10.453"/>
			<ellipse cx="-283.87" cy="-460.87" rx="10.079" ry="10.453"/>
			<ellipse cx="-293.59" cy="-462.01" rx="10.079" ry="10.453"/>
		</g>
		<path d="m-283.62-465.6c0.0418-2.652-3.4128 0.46416-3.6124-1.8176-1.1318-1.3588-3.4826-0.0716-4.2929-0.52486-0.30229-2.0942-3.1475-1.4227-4.5071-0.79725-1.2335 1.1402-1.7945 2.9528-3.2083 3.8028-0.19439 1.2482 0.19592 2.2774 0.93216 2.9272-1.8338 3e-3 -3.4976 2.7892-1.6491 3.9138 2.4896 0.0477-1.0793 1.989 0.79036 3.0696 0.89513 1.0666 2.3933 0.52255 3.1836 0.13477-0.11925 2.0519 2.935 3.188 3.8425 1.148 0.63426-0.8187 1.1654-1.7496 1.2942-0.173 1.6086 1.7336 3.9536 1.5435 5.5535 0.21028 1.0767 1.7048 3.5135 0.45656 3.8865-1.1952 1.6-0.68637 3.8393-1.4256 3.2482-3.6327 1.1865-1.4244 1.6056-3.9983-0.72052-4.5263-1.5888-0.67725 1.1491-3.1321-1.2826-3.1045-1.1644-0.17178-3.1598 0.36323-3.621 0.74604 0.0115-0.35502 1.2162-0.47909 0.1629-0.18126z" fill-opacity=".082645"/>
		<ellipse cx="-301.24" cy="-467.88" rx="10.079" ry="10.453" fill="#b9b5ad" fill-opacity=".44215"/>
		<path d="m-282.07-463.1c0.0434-2.7418-3.5283 0.47991-3.7348-1.8791-1.17-1.4048-3.6005-0.074-4.4382-0.54266-0.31251-2.1651-3.2541-1.4709-4.6598-0.82423-1.2753 1.1788-1.8552 3.0527-3.3169 3.9316-0.20111 1.2905 0.20264 2.3546 0.9637 3.0263-1.8958 6e-3 -3.616 2.8837-1.7049 4.0463 2.5739 0.0496-1.1158 2.0563 0.8171 3.1735 0.92544 1.1027 2.4744 0.54026 3.2914 0.13937-0.12313 2.1214 3.0343 3.296 3.9726 1.187 0.65575-0.84645 1.2049-1.8089 1.338-0.1788 1.6631 1.7922 4.0875 1.5958 5.7416 0.21762 1.1132 1.7625 3.6325 0.47202 4.0181-1.2357 1.6542-0.70963 3.9693-1.4739 3.3582-3.7557 1.2266-1.4727 1.66-4.1337-0.7449-4.6796-1.6426-0.70024 1.188-3.2382-1.326-3.2096-1.2039-0.1776-3.2668 0.37553-3.7436 0.77128 0.0129-0.36703 1.2574-0.49531 0.16841-0.18736z" fill-opacity=".082645"/>
		<g>
			<path d="m-291.38-486.05 6.2954-0.8617 1.9919 5.9085-1.9895-1.0434-9.4224 14.128 2.2043 1.4011-7.1681 1.1913-1.2913-7.0106 2.3044 1.2436 8.8072-13.855z" fill="#2a7fff"/>
			<path d="m-308.16-484.98 5.5033-3.1761 4.0764 4.7182-2.2362-0.21458-3.387 16.64 2.5703 0.46449-6.1869 3.811-3.8441-6.0033 2.6034 0.28091 2.9203-16.156z" fill="#59f"/>
			<path d="m-337.6-480.88 2.9406-5.6328 5.9713 1.795-2.0023 1.0186 6.0684 15.86 2.4183-0.9868-3.1768 6.5352-6.4647-3.0041 2.3478-1.1596-6.2025-15.201z" fill="#acf"/>
		</g>
		<path d="m-325.74-469.42 0.31946 0.68126 19.586-7.1481-0.28578-0.71481z"/>
		<path d="m-289.56-457.52c0.49875 0.0599 1.0213 0.44279 1.5026 0.26591 0.65169-0.28578 1.3034-0.57136 1.9551-0.85701 0.84719 0.16749 1.6944 0.33492 2.5416 0.50239 0.85703-0.41373 1.714-0.82749 2.5711-1.2412 0.3251 0.0886 0.65015 0.17728 0.97525 0.26593 0.4269-0.18279-0.27356-0.31746-0.41401-0.46901-0.36253-0.19165-0.7055-0.4534-1.116-0.52266-0.29771 0.12873-0.57103 0.34012-0.90633 0.37683-0.34863 0.0667-0.69517 0.15895-0.96106 0.41023-0.306 0.29281-0.73018-0.0529-1.0946-0.0759-0.24514-0.0651-0.75997-0.18279-0.83486-0.21427 0.53438 0.0764 1.0688 0.15253 1.6032 0.22894 0.39315-0.49409 0.76716-1.0034 1.1722-1.488 0.42504-0.36192 0.96079-0.20754 1.4649-0.17392 0.20448 0.0648 0.63674 0.0547 0.52239-0.22985-0.64233-0.16292-1.2689-0.39158-1.911-0.55984-0.46472-0.10359-0.67559 0.2271-0.90415 0.56702-0.25431 0.27386-0.59587 0.48981-0.73541 0.85006-0.33301 0.0331-0.68062-0.0965-1.0194-0.12471-0.35735-0.0562-0.71469-0.11221-1.0721-0.16841-1.2374 0.51187-2.4818 1.0063-3.7236 1.5072 0.0369 0.31067-0.10762 0.71662 0.17239 0.94018 0.0703 0.0697 0.14268 0.14367 0.21183 0.20998z" fill="#fea"/>
		<path d="m-321.86-475.01c0.44628-0.23199 0.79613-0.75875 1.3252-0.73778 0.54092 0.0523 1.1574-0.18492 1.6114 0.19378 0.39478 0.17728 0.70078 0.44965 0.89128 0.83887 0.3932 0.56568 1.0391 0.85125 1.5885 1.2339 1.063 0.60767 2.147 1.1792 3.2521 1.707l-1.2889 2.1987c-1.2181 0.50814-2.4536 0.98072-3.6607 1.5116-0.33754 0.12528-0.74213 0.74335-0.99259 0.22893-0.5381-0.59703-1.0762-1.1941-1.6142-1.7912-0.20203-0.57284-0.40435-1.1457-0.60655-1.7185 0.11854-0.27141 0.78405-1.0904 0.70907-1.2752-0.35428-0.055-0.63278 0.36982-0.98706 0.31479-0.27478-0.28425-0.54656-0.64288-0.28487-0.95999 0.11365-0.23169 0.1724-0.57311-0.2381-0.5059-0.10819-0.2439 0.26868-0.57056 0.31904-0.85904-9e-3 -0.12658-0.0152-0.25369-0.0244-0.37992z" fill="#1a1a1a"/>
		<rect x="-395.99" y="-414.09" width="124.66" height="74.331" fill="#b7b7c8"/>
		<rect x="-388.85" y="-377.61" width="88.391" height="33.959" fill="#ffe6d5"/>
		<path d="m-296.23-363.56h-4.5695" fill="none" marker-end="url(#h)" stroke="#000" stroke-width="1.0301"/>
		<rect x="-357.79" y="-370.92" width="48.864" height="22.049" fill="#808080"/>
		<text x="-332.84207" y="-356.02515" fill="#ffffff" font-family="'Open Sans'" font-size="12.143px" letter-spacing="0px" stroke-width="1.5179" text-align="center" text-anchor="middle" word-spacing="0px" style="font-feature-settings:normal;font-variant-caps:normal;font-variant-ligatures:normal;font-variant-numeric:normal;line-height:1.25" xml:space="preserve"><tspan x="-332.84207" y="-356.02515" fill="#ffffff" font-family="'Open Sans'" stroke-width="1.5179">libgit2</tspan></text>
		<g fill="#4d4d4d">
			<rect x="-361.03" y="-335.3" width="13.333" height="13.197"/>
			<rect x="-346.88" y="-335.3" width="13.333" height="13.197"/>
			<rect x="-332.87" y="-335.3" width="13.333" height="13.197"/>
			<rect x="-318.72" y="-335.3" width="13.333" height="13.197"/>
		</g>
		<path d="m-293.67-325.94 0.28578-34.865" fill="none" stroke="#000" stroke-width="1.0301"/>
		<text x="-371.08359" y="-380.12827" fill="#000080" font-family="'Open Sans'" font-size="7.4761px" letter-spacing="0px" stroke-width=".93452" text-align="center" text-anchor="middle" word-spacing="0px" style="font-feature-settings:normal;font-variant-caps:normal;font-variant-ligatures:normal;font-variant-numeric:normal;line-height:1.25" xml:space="preserve"><tspan x="-371.08359" y="-380.12827" fill="#000080" font-family="'Open Sans'" stroke-width=".93452">libjsongit2</tspan></text>
		<text x="-333.21021" y="-314.30743" fill="#000000" font-family="'Open Sans'" font-size="7.2774px" letter-spacing="0px" stroke-width=".90968" text-align="center" text-anchor="middle" word-spacing="0px" style="font-feature-settings:normal;font-variant-caps:normal;font-variant-ligatures:normal;font-variant-numeric:normal;line-height:1.25" xml:space="preserve"><tspan x="-333.21021" y="-314.30743" font-family="'Open Sans'" stroke-width=".90968">your bare git repos</tspan></text>
		<g fill="none" stroke="#000" stroke-width="1.0285px">
			<path d="m-354.5-349.5v12.289" marker-end="url(#e)" marker-start="url(#w)"/>
			<path d="m-339.98-349.35v12.289" marker-end="url(#j)" marker-start="url(#x)"/>
			<path d="m-326.32-349.35v12.289" marker-end="url(#k)" marker-start="url(#ab)"/>
			<path d="m-311.72-349.5v12.289" marker-end="url(#d)" marker-start="url(#ac)"/>
		</g>
		<g>
			<text x="-282.49365" y="-356.62146" fill="#000000" font-family="'Open Sans'" font-size="4.8827px" letter-spacing="0px" stroke-width=".61033" text-align="center" text-anchor="middle" word-spacing="0px" style="font-feature-settings:normal;font-variant-caps:normal;font-variant-ligatures:normal;font-variant-numeric:normal;line-height:1.25" xml:space="preserve"><tspan x="-282.49365" y="-356.62146">gitolite</tspan><tspan x="-282.49365" y="-350.51813">ACL</tspan></text>
			<g transform="matrix(3.0565 0 0 3.0565 -496.6 -880.17)" fill="#800000" stroke-width=".70932" style="font-feature-settings:normal;font-variant-caps:normal;font-variant-ligatures:normal;font-variant-numeric:normal" aria-label="ohashi">
				<path d="m33.567 131.54q0 0.7592-0.32141 1.1831-0.32141 0.42116-0.88111 0.42116-0.35466 0-0.6262-0.19395-0.27154-0.19396-0.41839-0.55693-0.14685-0.36575-0.14685-0.85341 0-0.75088 0.31864-1.172 0.31864-0.42393 0.88388-0.42393 0.54585 0 0.86726 0.43225 0.32418 0.42947 0.32418 1.1637zm-1.6403 0q0 0.48212 0.10529 0.72872t0.33804 0.2466q0.44333 0 0.44333-0.97532 0-0.48489-0.10806-0.72318-0.10529-0.24106-0.33527-0.24106-0.23275 0-0.33804 0.24106-0.10529 0.23829-0.10529 0.72318z"/>
				<path d="m35.623 133.09v-1.8398q0-0.67885-0.34081-0.67885-0.25491 0-0.35743 0.26877-0.10252 0.266-0.10252 0.76751v1.4824h-0.73703v-4.3114h0.73703v0.95869q0 0.18565-0.03325 0.66222h0.03879q0.22166-0.45441 0.68162-0.45441 0.42393 0 0.64005 0.28816 0.21612 0.2854 0.21612 0.84233v2.0144z"/>
				<path d="m38.48 133.09-0.14685-0.42116h-0.01662q-0.16348 0.27153-0.33804 0.37405t-0.44056 0.10252q-0.34081 0-0.53754-0.25491-0.19396-0.25491-0.19396-0.70932 0-0.48766 0.266-0.72318 0.26877-0.23829 0.80076-0.26323l0.41008-0.0166v-0.22167q0-0.43224-0.37406-0.43224-0.27708 0-0.63728 0.21612l-0.25491-0.50983q0.45995-0.29093 1.0003-0.29093 0.49043 0 0.74534 0.28262 0.25768 0.27985 0.25768 0.79522v2.0726zm-0.64005-0.52091q0.20227 0 0.32141-0.1801 0.12192-0.18288 0.12192-0.48489v-0.26046l-0.2272 0.0111q-0.25214 0.0139-0.37129 0.14409-0.11637 0.13022-0.11637 0.38791 0 0.38237 0.27154 0.38237z"/>
				<path d="m41.273 132.18q0 0.45164-0.266 0.70655-0.26323 0.25214-0.77859 0.25214-0.45718 0-0.75643-0.1801v-0.64005q0.15239 0.10529 0.35466 0.17456 0.20504 0.0693 0.3602 0.0693 0.17179 0 0.26046-0.0831 0.09144-0.0859 0.09144-0.22443 0-0.14131-0.09421-0.2466t-0.34635-0.25769q-0.33527-0.19949-0.48212-0.42393-0.14408-0.2272-0.14408-0.53476 0-0.39346 0.26877-0.62343 0.27154-0.22998 0.74257-0.22998 0.41008 0 0.77305 0.21612l-0.24106 0.52923q-0.29648-0.16071-0.52091-0.16071-0.14131 0-0.21335 0.0748-0.06927 0.0748-0.06927 0.18287 0 0.12469 0.0859 0.22167 0.08866 0.097 0.32695 0.24106 0.28816 0.17456 0.40454 0.29647 0.11637 0.12192 0.1801 0.27708 0.06373 0.15517 0.06373 0.36298z"/>
				<path d="m43.281 133.09v-1.8398q0-0.67885-0.34081-0.67885-0.25491 0-0.35743 0.26877-0.10252 0.266-0.10252 0.76751v1.4824h-0.73703v-4.3114h0.73703v0.95869q0 0.18565-0.03325 0.66222h0.03879q0.22166-0.45441 0.68162-0.45441 0.42393 0 0.64005 0.28816 0.21612 0.2854 0.21612 0.84233v2.0144z"/>
				<path d="m45.368 133.09h-0.73703v-3.0867h0.73703zm-0.76751-3.893q0-0.18288 0.10529-0.28817 0.10806-0.10806 0.29925-0.10806 0.1801 0 0.28816 0.10806 0.10806 0.10529 0.10806 0.28817 0 0.18841-0.11083 0.2937-0.11083 0.10252-0.28539 0.10252-0.18287 0-0.2937-0.10252-0.11083-0.10529-0.11083-0.2937z"/>
			</g>
			<g transform="matrix(3.0565 0 0 3.0565 -496.6 -880.17)" stroke-width=".72485" style="font-feature-settings:normal;font-variant-caps:normal;font-variant-ligatures:normal;font-variant-numeric:normal" aria-label="git">
				<path d="m33.647 125.02v0.44171l-0.37658 0.0849q0.11043 0.19821 0.11043 0.49834 0 0.50117-0.27182 0.78431-0.27182 0.28315-0.75883 0.28315-0.14157 0-0.20953-0.0226-0.0538 0.0481-0.10193 0.10759-0.04813 0.0595-0.04813 0.14724 0 0.1982 0.34261 0.1982h0.45586q0.40207 0 0.61726 0.21802 0.21802 0.21519 0.21802 0.65124 0 0.5493-0.36809 0.84943-0.36809 0.30014-1.059 0.30014-0.52382 0-0.80696-0.22935-0.28315-0.22652-0.28315-0.64841 0-0.26332 0.16139-0.46435 0.16139-0.19821 0.44737-0.28881-0.1444-0.0566-0.23784-0.17555-0.09061-0.11892-0.09061-0.27748 0-0.0963 0.02831-0.17272 0.02831-0.0793 0.07928-0.14724 0.0538-0.0708 0.21519-0.20669-0.19537-0.11893-0.30863-0.36526-0.11326-0.24634-0.11326-0.54647 0-0.51816 0.27182-0.8013 0.27182-0.28315 0.77865-0.28315 0.09627 0 0.22085 0.0226 0.12458 0.0198 0.18971 0.0425zm-1.8546 3.6073q0 0.18687 0.11609 0.28597 0.11892 0.10193 0.33694 0.10193 0.34261 0 0.51249-0.13024 0.17272-0.13025 0.17272-0.35677 0-0.17838-0.09344-0.25199-0.09061-0.0736-0.3426-0.0736h-0.36526q-0.1529 0-0.24634 0.11326-0.09061 0.11609-0.09061 0.31146zm0.23218-2.5823q0 0.5578 0.31429 0.5578 0.3058 0 0.3058-0.56346 0-0.57762-0.3058-0.57762-0.31429 0-0.31429 0.58328z"/>
				<path d="m34.785 128.17h-0.75317v-3.1542h0.75317zm-0.78431-3.9782q0-0.18688 0.1076-0.29447 0.11043-0.11043 0.3058-0.11043 0.18404 0 0.29447 0.11043 0.11043 0.10759 0.11043 0.29447 0 0.19254-0.11326 0.30013-0.11326 0.10477-0.29164 0.10477-0.18688 0-0.30013-0.10477-0.11326-0.10759-0.11326-0.30013z"/>
				<path d="m36.526 127.59q0.15856 0 0.34261-0.0793v0.58894q-0.18404 0.12742-0.55213 0.12742-0.41056 0-0.60876-0.24351-0.1982-0.24633-0.1982-0.73617v-1.6338h-0.3058v-0.33695l0.39357-0.27181 0.19254-0.66823h0.48135v0.67955h0.57195v0.59744h-0.57195v1.6592q0 0.31712 0.25483 0.31712z"/>
			</g>
			<text x="-380.66119" y="-416.86029" fill="#000080" font-family="'Open Sans'" font-size="7.4337px" letter-spacing="0px" stroke-width=".92921" text-align="center" text-anchor="middle" word-spacing="0px" style="font-feature-settings:normal;font-variant-caps:normal;font-variant-ligatures:normal;font-variant-numeric:normal;line-height:1.25" xml:space="preserve"><tspan x="-380.66119" y="-416.86029" fill="#000080" font-family="'Open Sans'" stroke-width=".92921">gitohashi</tspan></text>
		</g>
		<path d="m-287.49-373.29h-12.289" fill="none" marker-end="url(#g)" stroke="#000" stroke-width="1.0294"/>
		<g>
			<text x="-279.01175" y="-374.48941" fill="#000000" font-family="'Open Sans'" font-size="4.9183px" letter-spacing="0px" stroke-width=".61478" text-align="center" text-anchor="middle" word-spacing="0px" style="font-feature-settings:normal;font-variant-caps:normal;font-variant-ligatures:normal;font-variant-numeric:normal;line-height:1.25" xml:space="preserve"><tspan x="-279.01175" y="-374.48941">vhost</tspan><tspan x="-279.01175" y="-368.34158">config</tspan></text>
			<rect x="-334.7" y="-441.53" width="54.172" height="18.538" fill="#00f"/>
			<text x="-306.91687" y="-432.90109" fill="#ffffff" font-family="'Open Sans'" font-size="8.7318px" letter-spacing="0px" stroke-width="1.0915" text-align="center" text-anchor="middle" word-spacing="0px" style="font-feature-settings:normal;font-variant-caps:normal;font-variant-ligatures:normal;font-variant-numeric:normal;line-height:1.25" xml:space="preserve"><tspan x="-306.91687" y="-432.90109" fill="#ffffff" font-family="'Open Sans'" stroke-width="1.0915">webserver</tspan></text>
		</g>
		<path d="m-311.3-448.38v6.9969" fill="none" marker-end="url(#f)" marker-start="url(#y)" stroke="#000" stroke-width=".77603px"/>
		<text x="-293.15182" y="-416.7309" fill="#000000" font-family="'Open Sans'" font-size="4.9183px" letter-spacing="0px" stroke-width=".61478" text-align="center" text-anchor="middle" word-spacing="0px" style="font-feature-settings:normal;font-variant-caps:normal;font-variant-ligatures:normal;font-variant-numeric:normal;line-height:1.25" xml:space="preserve"><tspan x="-293.15182" y="-416.7309" font-family="'Open Sans'" stroke-width=".61478">unix socket</tspan></text>
		<text x="-307.6283" y="-426.52966" fill="#ffffff" font-family="'Open Sans'" font-size="4.7994px" letter-spacing="0px" stroke-width=".59993" text-align="center" text-anchor="middle" word-spacing="0px" style="font-feature-settings:normal;font-variant-caps:normal;font-variant-ligatures:normal;font-variant-numeric:normal;line-height:1.25" xml:space="preserve"><tspan x="-307.6283" y="-426.52966" fill="#ffffff" font-family="'Open Sans'" stroke-width=".59993">eg, apache, lighttpd</tspan></text>
		<path d="m-333.02-408.06-8.1394-9.4624 0.0754-33.959 22.85-12.895" fill="none" stroke="#4d4d4d" stroke-dasharray="0.8404728, 0.8404728" stroke-width=".84047"/>
		<text x="-353.00491" y="-448.07117" fill="#4d4d4d" font-family="'Open Sans'" font-size="4.9183px" letter-spacing="0px" stroke-width=".61478" text-align="center" text-anchor="middle" word-spacing="0px" style="font-feature-settings:normal;font-variant-caps:normal;font-variant-ligatures:normal;font-variant-numeric:normal;line-height:1.25" xml:space="preserve"><tspan x="-353.00491" y="-448.07117">direct</tspan><tspan x="-353.00491" y="-441.92334">h1 / h2</tspan><tspan x="-353.00491" y="-435.77551">http[s]</tspan><tspan x="-353.00491" y="-429.62766">serving</tspan></text>
		<g transform="matrix(2.167 0 0 2.167 -428.18 -767.27)" stroke="#000">
			<path transform="matrix(.50721 0 0 .50721 25.042 69.595)" d="m51.659 134.03c-2.0851-0.12503-3.8134 1.7965-4.5661 3.9988-1.5249 1.1166-4.2394-0.53702-5.789 1.0267-2.0771 2.076-0.37705 6.0117 2.7601 4.8135-0.47278 1.5099-0.75873 4.5771 1.522 5.411 2.1312 1.3398 4.9927 3.0089 7.4051 1.2303 0.68399 2.3393 3.6453 2.132 5.8297 2.0845 2.7293-0.0797 2.925-3.1718 3.7481-5.0413 2.2446 0.29343 5.4772 1.759 7.3986-0.52837 2.0288-1.933 1.2298-5.1169-1.3224-6.0736 0.52211-1.5598 3.1656-3.1727 2.0583-5.5736-0.53035-2.6615-4.5547-2.3289-6.5126-1.6479-1.7563 0.39989-4.1576-2.7705-6.6758-2.069-2.0834 0.0156-3.7796 3.3888-5.856 2.3689z" filter="url(#o)" stroke-width=".26458px"/>
			<path d="m51.114 137.16c-1.0576-0.0634-1.9342 0.91121-2.316 2.0282-0.77345 0.56634-2.1503-0.27238-2.9362 0.52075-1.0535 1.053-0.19124 3.0492 1.4 2.4414-0.2398 0.76584-0.38483 2.3216 0.77195 2.7445 1.081 0.67957 2.5323 1.5261 3.756 0.62404 0.34693 1.1865 1.8489 1.0814 2.9569 1.0573 1.3843-0.0404 1.4836-1.6088 1.9011-2.557 1.1385 0.14883 2.7781 0.89221 3.7526-0.26799 1.029-0.98042 0.62376-2.5953-0.67075-3.0806 0.26481-0.79115 1.6056-1.6092 1.044-2.827-0.269-1.3499-2.3102-1.1812-3.3033-0.83582-0.89082 0.20282-2.1088-1.4052-3.386-1.0494-1.0567 8e-3 -1.917 1.7188-2.9702 1.2015z" fill="#fff" stroke-width=".1342px"/>
		</g>
		<path d="m-328.28-464.88c0.21885 1.3859 0.0881 4.0182 2.0096 3.973 2.649-0.85763 1.5491 2.2539 2.2606 3.7051 0.51529 1.7116 2.2933 2.58 3.8561 3.1856 1.4458-0.32128 2.9297-0.43055 4.3606-0.90077 0.57279-0.51512 1.3127-2.3266 1.448-0.44476-0.13232 1.8866 1.3782 3.5572 3.2402 3.6959 1.9637 0.0773 4.0203-1.1483 4.404-3.1757 0.3804-2.3441 2.8605-1.9735 4.5973-1.7593 2.506 0.44885 4.4817-1.4985 4.1063-3.6858-0.31599-0.60155-0.94045-1.4999-0.53175-1.9244 0.61675 0.22405 0.68359 0.28517 1.5065 1.1683 1.2771 1.4096 0.76661 3.4212-0.71242 4.48-1.8363 1.8671-4.6609 1.271-6.9506 0.85049-1.4439 0.0129-1.7754 2.813-2.933 3.9902-1.3944 1.246-3.5069 1.2349-5.2574 0.99344-2.6507-1.0194-1.8446-1.6178-2.2955-2.5216-1.2206 1.3905-2.8625 1.4182-4.5053 0.86446-2.1696-0.49547-4.2633-1.6908-5.2034-3.7574-1.0688-1.2054 0.79099-4.1726-1.6225-3.5388-1.7044-0.0987-2.8828-1.4651-2.9423-2.9971-0.0315-0.8072 0.35531-1.4056 0.81488-1.8559l0.36273-0.25643z" fill="#afdde9"/>
		<g fill="none" stroke="#59f" stroke-width=".52878">
			<path d="m-298.8-462.58c-2.4302-0.8665-4.8287 0.31854-5.2088 2.2516-0.57283 3.8423 2.7931 3.6218 3.8384 3.7462 2.1306-0.1516 1.8998-3.1403-0.0129-3.5147-0.65814-0.0987-1.8193 0.40383-1.368 1.2087"/>
			<path d="m-315.45-469.86c-3.1873 1.5095-1.9104 6.7142 1.739 7.5747 2.9098 0.67189 5.0896-0.90373 5.4125-3.91-0.13262-5.8058-9.3627-2.4435-4.4215 1.1614 1.7998 0.91066 2.4473-2.2511 0.31213-1.9925"/>
			<path d="m-316.27-452.11c2.1731-1.1625 2.913-4.9719 0.0703-6.7678-1.7938-1.1867-6.5017-0.77123-6.5761 2.0293 0.11092 2.6987 3.4484 3.2934 4.6464 1.8583 1.5111-1.9464-1.2-3.6675-1.7665-1.3124"/>
			<path d="m-305.46-455.25c0.26806-1.2997-0.44592-2.7123-2.47-2.9702-1.4136-3e-3 -2.414 0.91379-2.5274 2.0134-0.14854 1.4416 0.89348 2.2783 0.89348 2.2783"/>
			<path d="m-322.17-465.63c-0.33796 1.158-0.40682 2.8279 1.0784 4.2209"/>
			<path d="m-325.57-459.33c1.7927-0.95713 1.5671-3.5348 0.23964-4.0478-2.8353-0.88644-3.3373 2.2776-1.2884 2.3728 0.28426-0.0309 0.53218-0.29526 0.48226-0.59156"/>
		</g>
		<g transform="matrix(3.0565 0 0 3.0565 -412.66 -868.25)">
			<g transform="matrix(1.92 .75887 -.75887 1.92 -234.69 -887.49)">
				<g transform="rotate(-9.1961 290.54 412.25)" fill="#4d4d4d">
					<path d="m289.61 412.6 4.1903-1.44 0.0209-6e-3s0.0126-7.8e-4 0.0183 8.6e-4c0.0223 9e-3 0.0185 0.0208 0.0182 0.0272-4e-3 0.0181-0.0143 0.0217-0.0143 0.0217l-4.1687 1.5912-0.0146-0.072-0.0143-0.0432z"/>
					<path d="m289.62 412.6c-0.0524 0.0226-0.0861 0.0899-0.0627 0.14373 0.0307 0.0469 0.0788 0.0614 0.1254 0.0511-2e-3 -0.0566-0.0136-0.0949-0.0353-0.15225-5e-3 -0.01-0.0239-0.0342-0.0295-0.0436z"/>
				</g>
				<ellipse cx="289.7" cy="412.83" rx=".063066" ry=".059428" fill="url(#a)"/>
			</g>
			<path d="m8.1442 124.92 0.076005-0.0585 0.070158-0.0351 9.1206-1.0524 0.04677 0.0117-8.9861 1.1634-0.040926-0.0468-0.099391-0.0468-0.093545 0.0117z" fill="url(#b)"/>
			<path d="m8.2377 125.23 0.14616-0.0643 0.046772-0.0468 9.0387-1.2628-0.03508 0.0351-9.0095 1.3447-0.12278 0.0117z" fill="#42484c" fill-opacity=".72157"/>
			<text transform="rotate(-7.0969)" x="-6.6295662" y="125.1535" fill="#000000" font-family="'Open Sans'" font-size=".13449px" letter-spacing="0px" stroke-width=".016811" text-align="center" text-anchor="middle" word-spacing="0px" style="font-feature-settings:normal;font-variant-caps:normal;font-variant-ligatures:normal;font-variant-numeric:normal;line-height:1.25" xml:space="preserve"><tspan x="-6.6295662" y="125.1535" stroke-width=".016811">gitohashi</tspan></text>
			<text transform="rotate(-7.0969)" x="-6.6333256" y="125.14806" fill="#999999" font-family="'Open Sans'" font-size=".13449px" letter-spacing="0px" stroke-width=".016811" text-align="center" text-anchor="middle" word-spacing="0px" style="font-feature-settings:normal;font-variant-caps:normal;font-variant-ligatures:normal;font-variant-numeric:normal;line-height:1.25" xml:space="preserve"><tspan x="-6.6333256" y="125.14806" fill="#999999" stroke-width=".016811">gitohashi</tspan></text>
		</g>
		<g transform="matrix(3.0363 -.35085 .35085 3.0363 -454.75 -860.97)">
			<g transform="matrix(1.92 .75887 -.75887 1.92 -234.69 -887.49)">
				<g transform="rotate(-9.1961 290.54 412.25)" fill="#4d4d4d">
					<path d="m289.61 412.6 4.1903-1.44 0.0209-6e-3s0.0126-7.8e-4 0.0183 8.6e-4c0.0223 9e-3 0.0185 0.0208 0.0182 0.0272-4e-3 0.0181-0.0143 0.0217-0.0143 0.0217l-4.1687 1.5912-0.0146-0.072-0.0143-0.0432z"/>
					<path d="m289.62 412.6c-0.0524 0.0226-0.0861 0.0899-0.0627 0.14373 0.0307 0.0469 0.0788 0.0614 0.1254 0.0511-2e-3 -0.0566-0.0136-0.0949-0.0353-0.15225-5e-3 -0.01-0.0239-0.0342-0.0295-0.0436z"/>
				</g>
				<ellipse cx="289.7" cy="412.83" rx=".063066" ry=".059428" fill="url(#a)"/>
			</g>
			<path d="m8.1442 124.92 0.076005-0.0585 0.070158-0.0351 9.1206-1.0524 0.04677 0.0117-8.9861 1.1634-0.040926-0.0468-0.099391-0.0468-0.093545 0.0117z" fill="url(#b)"/>
			<path d="m8.2377 125.23 0.14616-0.0643 0.046772-0.0468 9.0387-1.2628-0.03508 0.0351-9.0095 1.3447-0.12278 0.0117z" fill="#42484c" fill-opacity=".72157"/>
			<text transform="rotate(-7.0969)" x="-6.6295662" y="125.1535" fill="#000000" font-family="'Open Sans'" font-size=".13449px" letter-spacing="0px" stroke-width=".016811" text-align="center" text-anchor="middle" word-spacing="0px" style="font-feature-settings:normal;font-variant-caps:normal;font-variant-ligatures:normal;font-variant-numeric:normal;line-height:1.25" xml:space="preserve"><tspan x="-6.6295662" y="125.1535" stroke-width=".016811">gitohashi</tspan></text>
			<text transform="rotate(-7.0969)" x="-6.6333256" y="125.14806" fill="#999999" font-family="'Open Sans'" font-size=".13449px" letter-spacing="0px" stroke-width=".016811" text-align="center" text-anchor="middle" word-spacing="0px" style="font-feature-settings:normal;font-variant-caps:normal;font-variant-ligatures:normal;font-variant-numeric:normal;line-height:1.25" xml:space="preserve"><tspan x="-6.6333256" y="125.14806" fill="#999999" stroke-width=".016811">gitohashi</tspan></text>
		</g>
		<path d="m-303.14-470.24c-1.8914 0.74338-1.9653 3.3298-0.70596 3.993 2.7138 1.2084 3.5783-1.8764 1.5541-2.2079-0.28579-3e-3 -0.56274 0.23169-0.54742 0.53183" fill="none" stroke="#59f" stroke-width=".52878"/>
		<path d="m-329.28-464.17c-0.62153 1.9496 0.76114 4.4849 2.9484 4.4524 1.7546-0.47679 1.1411 1.598 1.074 2.5974 0.84581 3.0288 4.2497 4.5217 6.8578 5.0452 1.3867 0.13879 2.8644-0.46532 3.6478-1.6405 0.56635-0.10086-0.62766 1.8865 0.47985 2.1469 1.2104 1.1289 3.273 1.1991 5.4246 0.58059 1.7865-1.3485 2.4523-2.2829 2.8048-4.3242 0.86154-1.2381 2.4222 0.0957 3.6056-0.15437 2.0935 0.4536 4.5914-0.33616 5.6579-2.2744 0.22189-0.50217 0.63827-2.8246 0.70887-1.1277 0.0214 2.4603-2.278 4.7132-4.7667 4.4776-1.4311-0.0404-2.7916-0.53538-4.1902-0.78351-1.2277 0.42178-0.99072 2.0771-1.463 3.0806-0.39316 1.0215-1.1102 2.0672-2.2872 2.2212-1.3929 0.23384-2.7424 0.1941-4.1387 0.11336-1.2712-0.19501-2.6358-1.0169-3.2651-2.1868-1.6793 1.1312-3.9312 0.74219-5.6634-0.0537-1.6649-0.80545-3.3658-1.5887-4.2173-3.5438-0.42116-1.1738 0.68596-2.5199-0.0437-3.5689-1.1543 0.0639-2.5297-0.0214-3.1877-1.2067-0.72793-1.0221-0.69637-2.405-0.10459-3.4802l0.0632-0.18401 0.0547-0.18645z" fill="#006680" fill-opacity=".67769"/>
		<rect x="-299.8" y="-335.5" width="13.333" height="13.197" fill="#806600"/>
		<path d="m-293.24-360.41-3.3887-3.3055" fill="none" stroke="#000" stroke-width="1.0301"/>
		<g>
			<text x="-292.74414" y="-329.46896" fill="#ffff00" font-family="'Open Sans'" font-size="2.8991px" letter-spacing="0px" stroke-width=".36239" text-align="center" text-anchor="middle" word-spacing="0px" style="font-feature-settings:normal;font-variant-caps:normal;font-variant-ligatures:normal;font-variant-numeric:normal;line-height:1.25" xml:space="preserve"><tspan x="-292.74414" y="-329.46896">gitolite-</tspan><tspan x="-292.74414" y="-325.84503">admin</tspan></text>
			<path d="m-300.26-463.17c0.74056-0.65132 1.4937-1.2884 2.2264-1.9486 0.40163-0.73508 0.8519-1.4506 1.223-2.1979 0.0984-0.29832 0.0244-1.0452 0.26592-1.0661 0.25095 0.44634 0.52155 0.99477 0.26501 1.4995-0.27143 0.64115-0.4458 1.3185-0.71998 1.9588-0.57891 0.68485-1.1699 1.3596-1.7382 2.0534-0.52619 0.0214-1.0098-0.22587-1.5223-0.29892z" fill="#5297a9"/>
			<path d="m-301.16-463.17 0.92926-0.75053 1.2152-0.82205 0.78629-0.64331 0.71481-1.1437 0.25033-1.1794-0.0358-1.1437-0.4289-1.2509-0.10733-0.0716 0.7148 0.46463 0.35741 0.64334 0.14311 0.64331-0.17881 1.0722-0.53613 1.0722-0.75052 1.2509-1.2152 1.0365-1.0007 0.82203z" fill="#afdde9"/>
			<path d="m-319.42-475.86 0.82201 0.75053 0.0358 0.32167 0.0716 0.92925-0.28579 0.64331 0.82206 0.1431 1.3581 0.0716 1.3582 1.0007 0.67905 1.2152 1.3939-1.1079-4.0744-2.2159-0.7863-0.82203-0.67907-0.71481z"/>
		</g>
		<path d="m-325.69-469.4 0.29067 0.6002 1.4532-0.51174-0.29068-0.6255z" fill="#d4aa00"/>
		<path d="m-307.67-476 0.29069 0.60022 1.4531-0.51176-0.29069-0.6255z" fill="#d4aa00"/>
		<path d="m-323.23-475.19 0.45081-0.53273 0.36883-0.12313 0.12285 0.12313 0.32791-0.20479 0.0412 0.12284 0.49179-0.0396 0.2048 0.24574-0.45081 0.53278-0.40983 0.61476h-0.16383l-0.12284-0.12313 0.0412-0.32781-0.24604 0.4917-0.24575-0.0819 0.20478-0.4506-0.287 0.32781-0.16384-0.12284 0.0819-0.32781z" fill="#333"/>
		<path d="m-321.16-475.06 3.2348 0.35382 0.0504 0.17698-3.6139-0.35383-0.0759-0.12629 0.0244-0.15161 0.20204-0.27814 0.48018-0.15161 0.20204 0.15161-0.0504 0.20204-0.22741 0.10114-0.10115-0.10114-0.17698 0.0504z" fill="#fc0"/>
		<path d="m-289.96-458.59 0.77521 0.41465 2.1453 0.19837 1.5864-1.0275 0.84731 0.19836-0.34251-0.63096-0.23444-1.2078-0.99153-0.36054-1.2619 0.45068-1.1898 0.2705-0.86531 0.39659-0.39662 0.84731z" fill="#ffd42a"/>
		<path d="m-291.98-459.51c-0.10819 0.21028-0.2164 0.42064-0.32448 0.63096 0.0275 0.20356-0.0306 0.43692 0.052 0.62166 0.17177 0.22741 0.21702 0.49287 0.3887 0.72038 0.0575 0.0761 0.38016 0.15221 0.43758 0.22832l1.1049-0.0562c0.15038-0.15619 0.30047-0.31248 0.4507-0.46873 0.0274-0.17636-3e-5 -0.36824 0.0966-0.52621 0.15405-0.32937 0.3081-0.65872 0.46217-0.98809-0.28608-0.0733-0.57844-0.12802-0.8605-0.21365-0.24269-0.12471-0.49859-0.22924-0.73238-0.3681-0.184-0.1727-0.36825-0.34524-0.55238-0.51787-0.17422 0.31256-0.34854 0.62531-0.52282 0.93778z" fill="#fff6ec"/>
		<path d="m-292.24-459.08-1.1367-0.45472-1.2883-0.64414-1.7809-1.6293-0.87148-0.64414-0.0379 0.53046 2.2734 2.1977 2.9177 1.6293-0.18951-0.56836z" fill="#fff6d5"/>
		<path d="m-288.81-457.31 2.4755 1.0413 0.55012 1.395-0.0591 0.58939-0.0981 0.25553 0.0184 0.19654 0.0786 0.0394 0.15711-0.17696 0.0786-0.53047 0.2161 0.5894-0.059 0.47154 0.15711 0.25552 0.0591-0.76622-0.2161-0.60907 0.29465 0.64835 0.0591 0.56978 0.0184 0.21609 0.15711-0.11768-0.11796-0.78586-0.29465-0.68767 0.33399 0.72693 0.19653 0.70732 0.15711 0.0184-0.23565-0.90372-0.33399-0.5305 0.41256 0.51084 0.19654 0.45188 0.15711-0.0394-0.35365-0.668-0.17696-0.60905-0.49119-0.3733-0.66798-1.4539-2.0433-0.72693z" fill="#fea"/>
		<path d="m-297.33-462.39-0.24238-0.39141-0.80146-0.3355-0.37278 0.13045-0.13046 0.11193v0.11192l0.42872-0.16781 0.39139 0.16781-0.33549-0.11192-0.98784 0.31683 0.0372 0.13046 0.83875-0.27968 0.52188 0.14917-0.48462-0.0372-0.78281 0.27967-0.0559 0.13046 0.0559 0.0559 0.80146-0.33549 0.29831 0.0746-0.29831 0.33549-0.57778 0.18645-0.0746 0.13045 0.0184 0.14917 0.20508 0.0184 0.98785-0.46597 0.54052 0.11192z" fill="#fea"/>
		<g fill="none" stroke="#bdc68a" stroke-width=".14422px">
			<path d="m-289.92-458.97-0.81124-0.0361 0.68504 0.39659"/>
			<path d="m-291.51-459.73 0.41462 0.55886-0.77518-0.18035"/>
			<path d="m-291.47-458.61c-0.18338-0.0593-0.29709 0.0553-0.37742 0.18737-0.0534 0.11394 0.0395 0.23168 0.10733 0.31911 0.0871 0.0973 0.16323 0.21793 0.29955 0.2491 0.27142 0.0358 0.5267 0.0556 0.78164 0.0749 0.17606-0.0713 0.17026-0.34872 0.0129-0.43604-0.24727-0.17851-0.53492-0.29772-0.82196-0.39356z"/>
		</g>
		<path transform="matrix(3.0565 0 0 3.0565 401.07 -1477)" d="m-225.68 333.06 0.33073 0.14882 0.66146-0.34726 0.0496-0.13229-0.29766 0.16536-0.34726 0.23151-0.34727-0.24804z" fill="#fd5" filter="url(#v)"/>
		<g fill="#d4aa00">
			<path d="m-285.03-460.16 0.90982 0.0244 0.27784-0.37908 0.88453 0.1263 0.4549 0.50546 0.60652 1.0867-2.2745 0.70763-2.1987-0.30321z"/>
			<path d="m-287.11-458.04 3.1843 0.88452 1.7438 0.50544 0.55601 0.55599 0.25277-0.68235-0.73289-1.5416-1.4911 0.7329-2.6788-0.90981z"/>
			<path d="m-282.61-461.68-0.1516 0.20236 2.4261 0.70762 0.0759-0.22741z"/>
			<path d="m-281.47-459.75 1.7438 0.96034 0.0759-0.15161-1.769-0.98561z"/>
			<path d="m-280.62-459.34 0.14311 0.58969 0.0534 0.16079 0.14311 0.0184-0.10733-0.53609-0.0358-0.12499z"/>
			<path d="m-281.71-461.2 0.1431 0.46462 0.2323 0.17881 0.12499 0.10733h0.0716l-0.25032-0.28579-0.17882-0.2323 0.0358-0.1431z"/>
			<path d="m-290.92-461.59 0.51808-0.18949 0.48018-0.0632 1.0109-0.83401-0.23994 1.0867 0.36642 0.34118 0.17698 0.49281-0.0244 0.18951-0.37908 0.17696-0.13908-0.0379 0.0129-0.35379-0.44225-0.94771-1.251 0.60654-0.0129-0.12629v-0.16445z"/>
		</g>
		<path d="m-291.8-460.37c0.16904-0.37344 0.40582-0.72467 0.45873-1.1394 0.10115-0.25829 0.12012-0.74617 0.077-0.87598 0.0898 0.28334 0.12716 0.5995 0.35197 0.81601 0.19928 0.10847-0.0779 0.59934 0.22954 0.35565 0.3542-0.21334 0.72581-0.39499 1.1182-0.52646 0.1681 0.3305 0.33652 0.66102 0.50478 0.99151-0.0306 0.17667-0.15557 0.47462 0.11796 0.28395 0.28334-0.1681 0.60495-0.16658 0.92145-0.19041 0.17698-0.0752 0.58665-0.29619 0.61321-0.27632-0.43489 0.35237-0.87375 0.69995-1.3016 1.0609-0.17575 0.28182-0.43886 0.5202-0.55109 0.83478-0.0764 0.23077-0.17636 0.46569-0.12342 0.71322 0.0244 0.33285 0.0474 0.66574 0.0713 0.99859 0.2763 0.24912 0.52755 0.53207 0.82022 0.75946 0.17116 0.0773 0.34255 0.15467 0.5138 0.23231-0.16596 0.18125-0.29801 0.56485-0.53985 0.26988-0.25705-0.17055-0.51703-0.33738-0.76733-0.51805-0.15833-0.31038-0.49123-0.56363-0.51959-0.91653 1e-3 -0.30199-0.0889-0.62265 0.0626-0.90195 0.12528-0.33274 0.25064-0.66545 0.37611-0.99815-0.33212-0.0661-0.66963-0.12529-0.96883-0.29313-0.27999-0.0965-0.52915-0.25307-0.74629-0.45343-0.20081-0.15314-0.42993-0.46897-0.54021-0.084-0.1455 0.23353-0.28854 0.46866-0.43077 0.70426-0.13318-0.28701-0.051-0.58743-9e-3 -0.88352 0.0129-0.25583 0.27907-0.37379 0.42215-0.55791 0.10762-0.0905-0.11767 0.31656-0.14795 0.43189 6e-3 0.0382-0.14065 0.2106-0.0129 0.16261z" fill="#fc0"/>
		<g>
			<path d="m-289.62-459.41-0.11365 0.37911-0.16413 0.23994 0.10115 0.2653-0.0884 0.16413-0.0379 0.29069-0.0884 0.17696-0.36644 0.39171-0.90036 0.18523 0.95092-0.0593 0.45491-0.46753 0.0632-0.46755 0.44225-1.0614z" fill="#c5b35c"/>
			<path d="m-288.01-460.64c-0.28977 0.17086-0.69534 0.18187-0.88048 0.49999-0.10847 0.32079-0.19958 0.65202-0.39835 0.93163-0.23352 0.49617-0.30737 1.0607-0.27325 1.6038 0.0545 0.31525 0.16902 0.64425 0.49821 0.75086 0.28213 0.1733 0.54859 0.38369 0.74203 0.65545 0.0306 0.42626 0.50471-0.1834 0.13291-0.26287-0.23719-0.0379-0.46004-0.16627-0.58023-0.37751-0.27294-0.21792-0.55729-0.47342-0.55284-0.85381-0.10545-0.56365-0.0932-1.1864 0.23994-1.677 0.38057-0.61758 1.0069-1.0115 1.5498-1.469 0.0621-0.084-0.25187 0.10632-0.3478 0.13793-0.0434 0.0214-0.0865 0.0407-0.12988 0.0608z" fill="#e3bb2c"/>
			<path d="m-288.91-462.7-0.40438 1.0741 0.2653 0.44227 0.17698 0.44227-0.0759 0.29068 0.35383-0.15161-0.0129-0.21487-0.17698-0.48018-0.35383-0.32852z" fill="#cc9028"/>
			<path d="m-291.27-462.34 0.0884 0.3159 0.1263 0.22741 0.12629 0.21487 0.0632 0.0244 0.0129 0.18951 0.0244 0.21486 0.20204-0.11364 0.41698-0.2274 0.42962-0.17698 0.20203-0.0884 0.0379 0.0129 0.0632 0.21488 0.15161 0.29067 0.17697 0.34118 0.10114 0.17696-0.0884 0.25279 0.0884 0.0759 0.31593-0.20204 0.36644-0.0504 0.25278-0.0115 0.18951-0.0244 0.48015-0.27784 0.0129 0.0379-0.50542 0.32854h-0.34118l-0.40434 0.0504-0.29069 0.17698-0.0129 0.0884 0.16413 0.0884-0.0504 0.0759-0.13907-0.12629-0.10115-0.11365-0.0884 0.0504-0.17698 0.0244-0.1263-0.0759 0.0129-0.0632 0.26532 0.0759 0.0632-0.0759-0.0379-0.1516 0.0379-0.17698-0.2274-0.51808-0.21488-0.40435-0.58126 0.2274-0.54337 0.31593-0.0632 0.11365 0.13908 0.0632 0.0759 0.0632-0.0379 0.0504-0.29067-0.21487-0.22741 0.0129v-0.0632l0.22741-0.0244-0.0244-0.36645-0.26531-0.42962-0.0759-0.24025z" fill="#806600" stroke="#a80" stroke-width=".061131"/>
			<path transform="matrix(3.0565 0 0 3.0565 401.07 -1477)" d="m-226.87 333.21-0.14882-0.0165-0.15297-0.0786-0.1943-0.13643-0.24391-0.0992-0.0455-0.12816-0.10336 8e-3 -0.1695-0.16536-0.1695-0.1447-0.401-0.39274-0.0785-8e-3 0.062 0.0661 0.78961 0.73587 0.3638 0.21497 0.55397 0.27699z" fill="#e9ddaf" filter="url(#s)"/>
			<path transform="matrix(3.0565 0 0 3.0565 401.07 -1477)" d="m-224.81 333.27 0.86403 0.32246 0.5085-0.15297-0.0744-0.15709-0.48369 0.23151-0.0703-8e-3 -0.62426-0.22737z" fill="#a0892c" filter="url(#t)"/>
			<path transform="matrix(3.0565 0 0 3.0565 401.07 -1477)" d="m-225.89 333.31 0.10524 0.19293 0.10524 0.10524 0.12862 0.0292 0.0935 0.0819 0.28648 0.11109 0.18709 0.0526 0.0819-0.0526 0.0526 0.15201 0.076 0.26309 0.0643 0.1637-0.21632-0.43264-0.13447-0.0819-0.21632-0.0585-0.15202-0.076-0.12277-0.076-0.0643-6e-3 -0.0935-0.0234-0.0877-0.0526-0.0877-0.0526z" fill="#e0da73" filter="url(#q)"/>
			<rect x="-382.39" y="-371.59" width="20.024" height="21.798" fill="#4d4d4d"/>
			<text x="-372.83511" y="-358.23364" fill="#ffffff" font-family="'Open Sans'" font-size="5.8786px" letter-spacing="0px" stroke-width=".73482" text-align="center" text-anchor="middle" word-spacing="0px" style="font-feature-settings:normal;font-variant-caps:normal;font-variant-ligatures:normal;font-variant-numeric:normal;line-height:1.25" xml:space="preserve"><tspan x="-372.83511" y="-358.23364" fill="#ffffff" font-family="'Open Sans'" stroke-width=".73482">cache</tspan></text>
			<path transform="matrix(3.0565 0 0 3.0565 401.07 -1477)" d="m-224.59 332.84 0.1571 0.0331 0.19843-0.0165 0.14056-0.0248 0.10749-0.0909 0.27285-0.0413 0.19017 0.28938-0.24805 0.0331-0.19843 0.0827-0.1323 0.0248-0.24804-0.0992-0.32246-0.10749z" fill="#a80" filter="url(#u)"/>
		</g>
		<g fill="#d4aa00">
			<path transform="matrix(3.0565 0 0 3.0565 401.07 -1477)" d="m-225.67 332.78 0.33073 0.0827 0.1819-0.15707 0.41341-0.17363 0.17364 0.0992 0.0496-0.0992-0.0992-0.0496-0.0496-0.0248-0.45476 0.13229-0.22324 0.13229z" filter="url(#r)"/>
			<g>
				<path d="m-282.4-461.58 0.11365-0.27784 0.40435 0.11365-0.13908 0.31589z"/>
				<path d="m-280.97-461.19 0.11365-0.27784 0.40435 0.11364-0.13908 0.31589z"/>
				<path d="m-281.16-459.73 0.15039-0.25979 0.38524 0.1675-0.18035 0.29403z"/>
				<path d="m-280.27-459.23 0.15038-0.25981 0.38524 0.16749-0.18032 0.29404z"/>
			</g>
		</g>
		<g>
			<path d="m-291.73-458.46 0.35383 0.25277 0.39802 0.16414 0.37278 0.0759-6e-3 -0.10732-0.0632-0.0632-0.27785-0.17698-0.42332-0.18951-0.18309-0.0569-0.0884 0.0244z" fill="#fff"/>
			<path d="m-287.16-457.99 0.1431 0.42888 0.67905-0.25032-0.16078-0.60758z" fill="#d1e668"/>
			<path d="m-318.63-462.88c2.2782 2.6291 5.9992 4.7375 9.5155 3.4221 2.2088-0.87733 4.4969-3.0241 3.948-5.6234 0.0312-1.1017-2.0256-3.1178-1.2365-0.98855 0.53823 1.5393 0.0651 3.1351-1.2765 4.0674-1.1434 0.97858-2.7321 1.4401-4.2251 1.427-2.3253-0.45294-4.5583-1.3533-6.7253-2.3046z" fill="#87cdde"/>
			<text x="-373.71854" y="-332.34729" fill="#4d4d4d" font-family="'Open Sans'" font-size="4.2582px" letter-spacing="0px" stroke-width=".53228" text-align="center" text-anchor="middle" word-spacing="0px" style="font-feature-settings:normal;font-variant-caps:normal;font-variant-ligatures:normal;font-variant-numeric:normal;line-height:1.25" xml:space="preserve"><tspan x="-373.71854" y="-332.34729">gitweb</tspan><tspan x="-373.71854" y="-327.02454">config</tspan></text>
			<rect x="-388.96" y="-405.89" width="35.345" height="13.197" fill="#4d4d4d"/>
			<text x="-371.20612" y="-397.36557" fill="#ffffff" font-family="'Open Sans'" font-size="5.8786px" letter-spacing="0px" stroke-width=".73482" text-align="center" text-anchor="middle" word-spacing="0px" style="font-feature-settings:normal;font-variant-caps:normal;font-variant-ligatures:normal;font-variant-numeric:normal;line-height:1.25" xml:space="preserve"><tspan x="-371.20612" y="-397.36557" fill="#ffffff" font-family="'Open Sans'" stroke-width=".73482">threadpool</tspan></text>
			<rect x="-340.79" y="-409.11" width="48.727" height="23.358" fill="#4d4d4d"/>
			<text x="-316.28238" y="-393.91928" fill="#ffffff" font-family="'Open Sans'" font-size="12.909px" letter-spacing="0px" stroke-width="1.6136" text-align="center" text-anchor="middle" word-spacing="0px" style="font-feature-settings:normal;font-variant-caps:normal;font-variant-ligatures:normal;font-variant-numeric:normal;line-height:1.25" xml:space="preserve"><tspan x="-316.28238" y="-393.91928" fill="#ffffff" font-family="'Open Sans'" stroke-width="1.6136">lws</tspan></text>
		</g>
		<g fill="none" stroke="#000">
			<path d="m-340.95-399.29h-12.289" marker-end="url(#c)" marker-start="url(#aa)" stroke-width="1.0285px"/>
			<path d="m-318.54-385.32v12.289" marker-end="url(#l)" marker-start="url(#ad)" stroke-width="1.0285px"/>
			<path d="m-312.01-422.4v12.289" marker-end="url(#i)" marker-start="url(#z)" stroke-width="1.8908"/>
		</g>
	</g>
</svg>
