<?xml version="1.0" encoding="UTF-8"?>
<!-- Created with Inkscape (http://www.inkscape.org/) -->
<svg width="140mm" height="95.8mm" version="1.1" viewBox="0 0 140.13134 95.847728" xmlns="http://www.w3.org/2000/svg" xmlns:cc="http://creativecommons.org/ns#" xmlns:dc="http://purl.org/dc/elements/1.1/" xmlns:rdf="http://www.w3.org/1999/02/22-rdf-syntax-ns#"><defs><filter id="b" x="-.0159" y="-.0179" width="1.03" height="1.04" color-interpolation-filters="sRGB"><feGaussianBlur stdDeviation="0.071411171"/></filter><filter id="a" x="-.0201" y="-.0299" width="1.04" height="1.06" color-interpolation-filters="sRGB"><feGaussianBlur stdDeviation="0.20045214"/></filter></defs><metadata><rdf:RDF><cc:Work rdf:about=""><dc:format>image/svg+xml</dc:format><dc:type rdf:resource="http://purl.org/dc/dcmitype/StillImage"/><dc:title/></cc:Work></rdf:RDF></metadata><g transform="translate(502 -42.1)"><rect transform="matrix(5.62 0 0 5.62 516 -1.74e3)" x="-181" y="318" width="24" height="16.1" filter="url(#a)"/><rect x="-501" y="43.9" width="135" height="90.4" fill="#fff"/><path transform="matrix(5.62 0 0 5.62 516 -1.74e3)" d="m-173 322h-5.88c-0.705 0.146-1.08 0.895-1.02 1.57 0.0852 2.2 0.315 4.39 0.142 6.08-0.195 0.798 0.476 1.55 1.24 1.67 1.88 0.0472 4.03 0.306 5.58 0.27 0.644-0.17 0.721-0.919 0.644-1.47-0.0656-0.58-0.0649-1.35 0.553-1.64 0.693-0.326 1.78-2e-3 2.49-0.205 0.32-0.29 0.0571-0.327-0.149-0.387-0.849-0.0449-1.84-0.907-2.35-1.7-0.754-1.49 0.436-1.94-0.0149-3.07-0.243-0.524-0.293-0.66-0.74-0.982z" filter="url(#b)"/><rect x="-441" y="60.6" width="9.82" height="68.2"/><path d="m-454 65.7h-33c-3.96 0.82-6.05 5.03-5.7 8.81 0.479 12.4 1.77 24.7 0.798 34.2-1.1 4.48 2.67 8.69 6.97 9.38 10.5 0.265 22.6 1.72 31.3 1.51 3.62-0.956 4.05-5.16 3.62-8.27-0.368-3.26-0.365-7.57 3.11-9.19 3.89-1.83 10-0.0115 14-1.15 1.79-1.63 0.321-1.84-0.834-2.18-4.77-0.252-10.3-5.09-13.2-9.57-4.24-8.38 2.45-10.9-0.0837-17.3-1.37-2.94-1.65-3.71-4.16-5.51z" fill="#fff6d5"/><g fill="#666"><rect x="-434" y="63" width="11.4" height="9.02"/><rect x="-434" y="73.8" width="11.4" height="9.02"/><rect x="-434" y="84.5" width="11.4" height="9.02"/></g><g><rect x="-433" y="95.1" width="11.4" height="9.02" fill="#fc0"/><rect x="-434" y="106" width="11.4" height="9.02" fill="#666"/><rect x="-433" y="117" width="11.4" height="9.02" fill="#666"/><text x="-427.67505" y="99.119179" fill="#000000" font-family="'Open Sans'" font-size="3.81px" letter-spacing="0px" stroke-width=".477" text-align="center" text-anchor="middle" word-spacing="0px" style="font-feature-settings:normal;font-variant-caps:normal;font-variant-ligatures:normal;font-variant-numeric:normal;line-height:1.25" xml:space="preserve"><tspan x="-427.67505" y="99.119179" font-family="'Open Sans'" stroke-width=".477">gitolite</tspan></text><text x="-427.72552" y="102.75929" fill="#000000" font-family="'Open Sans'" font-size="3.81px" letter-spacing="0px" stroke-width=".477" text-align="center" text-anchor="middle" word-spacing="0px" style="font-feature-settings:normal;font-variant-caps:normal;font-variant-ligatures:normal;font-variant-numeric:normal;line-height:1.25" xml:space="preserve"><tspan x="-427.72552" y="102.75929" font-family="'Open Sans'" stroke-width=".477">-admin</tspan></text></g><g fill="#ffffff" font-family="'Open Sans'" font-size="3.81px" letter-spacing="0px" stroke-width=".477" text-anchor="middle" word-spacing="0px"><text x="-427.81927" y="68.796104" text-align="center" style="font-feature-settings:normal;font-variant-caps:normal;font-variant-ligatures:normal;font-variant-numeric:normal;line-height:1.25" xml:space="preserve"><tspan x="-427.81927" y="68.796104" fill="#ffffff" font-family="'Open Sans'" stroke-width=".477">repo1</tspan></text><text x="-428.10443" y="79.995132" text-align="center" style="font-feature-settings:normal;font-variant-caps:normal;font-variant-ligatures:normal;font-variant-numeric:normal;line-height:1.25" xml:space="preserve"><tspan x="-428.10443" y="79.995132" fill="#ffffff" font-family="'Open Sans'" stroke-width=".477">repo2</tspan></text><text x="-427.91675" y="90.409317" text-align="center" style="font-feature-settings:normal;font-variant-caps:normal;font-variant-ligatures:normal;font-variant-numeric:normal;line-height:1.25" xml:space="preserve"><tspan x="-427.91675" y="90.409317" fill="#ffffff" font-family="'Open Sans'" stroke-width=".477">repo3</tspan></text><text x="-427.63528" y="111.23765" text-align="center" style="font-feature-settings:normal;font-variant-caps:normal;font-variant-ligatures:normal;font-variant-numeric:normal;line-height:1.25" xml:space="preserve"><tspan x="-427.63528" y="111.23765" fill="#ffffff" font-family="'Open Sans'" stroke-width=".477">repo4</tspan></text><text x="-427.54144" y="122.02705" text-align="center" style="font-feature-settings:normal;font-variant-caps:normal;font-variant-ligatures:normal;font-variant-numeric:normal;line-height:1.25" xml:space="preserve"><tspan x="-427.54144" y="122.02705" fill="#ffffff" font-family="'Open Sans'" stroke-width=".477">repo5</tspan></text></g><g><rect x="-416" y="60.5" width="7.38" height="69.1" fill="#666"/><rect x="-403" y="60.4" width="7.38" height="69.1" fill="#666"/><circle cx="-413" cy="67.3" r="4.46" fill="#0f0" stroke="#000" stroke-width=".562"/></g><g stroke="#000"><path d="m-415 67.6 1.88 1.69 2.91-4.41" fill="none" stroke-width="1.49px"/><circle cx="-413" cy="121" r="4.46" fill="#0f0" stroke-width=".562"/><path d="m-415 121 1.88 1.69 2.91-4.41" fill="none" stroke-width="1.49px"/><circle cx="-399" cy="88.9" r="4.46" fill="#0f0" stroke-width=".562"/><path d="m-402 89.1 1.88 1.69 2.91-4.41" fill="none" stroke-width="1.49px"/></g><text x="-413.03647" y="50.16304" fill="#000000" font-family="'Open Sans'" font-size="2.76px" letter-spacing="0px" stroke-width=".345" text-align="center" text-anchor="middle" word-spacing="0px" style="font-feature-settings:normal;font-variant-caps:normal;font-variant-ligatures:normal;font-variant-numeric:normal;line-height:1" xml:space="preserve"><tspan x="-413.03647" y="50.16304" style="line-height:1">vhost</tspan><tspan x="-413.03647" y="52.92186" style="line-height:1">"acl_user"</tspan><tspan x="-413.03647" y="55.680679" style="line-height:1"><tspan fill="#0000ff" font-family="'Open Sans'" stroke-width=".345">v-myhost</tspan></tspan></text><g stroke="#000"><circle cx="-378" cy="67.5" r="4.46" fill="#0f0" stroke-width=".562"/><path d="m-381 67.7 1.88 1.69 2.91-4.41" fill="none" stroke-width="1.49px"/><circle cx="-378" cy="88.9" r="4.46" fill="#0f0" stroke-width=".562"/><path d="m-381 89.1 1.88 1.69 2.91-4.41" fill="none" stroke-width="1.49px"/><circle cx="-378" cy="122" r="4.46" fill="#0f0" stroke-width=".562"/><path d="m-381 122 1.88 1.69 2.91-4.41" fill="none" stroke-width="1.49px"/></g><text x="-399.20462" y="49.93663" fill="#000000" font-family="'Open Sans'" font-size="2.71px" letter-spacing="0px" stroke-width=".339" text-align="center" text-anchor="middle" word-spacing="0px" style="font-feature-settings:normal;font-variant-caps:normal;font-variant-ligatures:normal;font-variant-numeric:normal;line-height:1" xml:space="preserve"><tspan x="-399.20462" y="49.93663" style="line-height:1">context</tspan><tspan x="-399.20462" y="52.648468" style="line-height:1">"authorized"</tspan><tspan x="-399.20462" y="55.360302" style="line-height:1"><tspan fill="#0000ff" font-family="'Open Sans'" stroke-width=".339">myuser</tspan></tspan></text><path d="m-380 75.7 4.16 4.22" fill="none" stroke="#f00" stroke-width="1.49px"/><path d="m-376 75.7-4.18 4.18" fill="#f00" stroke="#f00" stroke-width="1.49px"/><g fill="none" stroke="#f00" stroke-width="1.49px"><path d="m-380 97.3 4.16 4.22"/><path d="m-376 97.3-4.18 4.18"/><path d="m-380 108 4.16 4.22"/><path d="m-376 108-4.18 4.18"/></g><g fill="#000000" font-family="'Open Sans'" letter-spacing="0px" word-spacing="0px"><text x="-488.3504" y="78.013237" font-size="4.55px" stroke-width=".569" style="font-feature-settings:normal;font-variant-caps:normal;font-variant-ligatures:normal;font-variant-numeric:normal;line-height:1.25" xml:space="preserve"><tspan x="-488.3504" y="78.013237"><tspan font-family="'Open Sans'" stroke-width=".569">repo</tspan> repo1</tspan><tspan x="-488.3504" y="83.701195">    R = <tspan fill="#0000ff" font-family="'Open Sans'" stroke-width=".569">v-myvhost</tspan></tspan><tspan x="-488.3504" y="89.389153"><tspan font-family="'Open Sans'" stroke-width=".569">repo</tspan> repo5</tspan><tspan x="-488.3504" y="95.07711">    R = <tspan fill="#0000ff" font-family="'Open Sans'" stroke-width=".569">v-myvhost</tspan></tspan><tspan x="-488.3504" y="100.76507"><tspan font-family="'Open Sans'" stroke-width=".569">repo</tspan> repo3</tspan><tspan x="-488.3504" y="106.45303">    R = <tspan fill="#0000ff" font-family="'Open Sans'" stroke-width=".569">myuser</tspan></tspan></text><text x="-378.44226" y="53.439285" font-size="3.58px" stroke-width=".448" text-align="center" text-anchor="middle" style="font-feature-settings:normal;font-variant-caps:normal;font-variant-ligatures:normal;font-variant-numeric:normal;line-height:1" xml:space="preserve"><tspan x="-378.44226" y="53.439285" style="line-height:1">effective</tspan><tspan x="-378.44226" y="57.021053" style="line-height:1">ACL</tspan></text><text x="-464.68878" y="52.752182" font-size="5.7px" stroke-width=".712" text-align="center" text-anchor="middle" style="font-feature-settings:normal;font-variant-caps:normal;font-variant-ligatures:normal;font-variant-numeric:normal;line-height:1.25" xml:space="preserve"><tspan x="-464.68878" y="52.752182" stroke-width=".712">Gitolite ACL integration</tspan></text></g></g></svg>
