<?xml version="1.0" encoding="UTF-8"?>
<!-- Created with Inkscape (http://www.inkscape.org/) -->
<svg width="131mm" height="117mm" version="1.1" viewBox="0 0 131.09431 116.97856" xmlns="http://www.w3.org/2000/svg" xmlns:cc="http://creativecommons.org/ns#" xmlns:dc="http://purl.org/dc/elements/1.1/" xmlns:rdf="http://www.w3.org/1999/02/22-rdf-syntax-ns#" xmlns:xlink="http://www.w3.org/1999/xlink"><defs><radialGradient id="c" cx="133" cy="366" r="1.24" gradientTransform="translate(-6.51 -8.65)" gradientUnits="userSpaceOnUse"><stop stop-color="#ffffa8" stop-opacity=".632" offset="0"/><stop stop-color="#fff" stop-opacity="0" offset="1"/></radialGradient><filter id="n" x="-.0744" y="-.0744" width="1.15" height="1.15" color-interpolation-filters="sRGB"><feGaussianBlur stdDeviation="0.076639535"/></filter><radialGradient id="f" cx="133" cy="366" r="1.24" gradientTransform="translate(-6.51 -8.65)" gradientUnits="userSpaceOnUse"><stop stop-color="#ffffa3" stop-opacity=".707" offset="0"/><stop stop-color="#fff" stop-opacity="0" offset="1"/></radialGradient><filter id="o" x="-.0744" y="-.0744" width="1.15" height="1.15" color-interpolation-filters="sRGB"><feGaussianBlur stdDeviation="0.076639535"/></filter><radialGradient id="g" cx="133" cy="366" r="1.24" gradientTransform="translate(-6.51 -8.65)" gradientUnits="userSpaceOnUse"><stop stop-color="#fff" offset="0"/><stop stop-color="#fff" stop-opacity="0" offset="1"/></radialGradient><filter id="k" x="-.0744" y="-.0744" width="1.15" height="1.15" color-interpolation-filters="sRGB"><feGaussianBlur stdDeviation="0.076639535"/></filter><radialGradient id="d" cx="133" cy="366" r="1.24" gradientTransform="translate(-6.51 -8.65)" gradientUnits="userSpaceOnUse"><stop stop-color="#fff" stop-opacity=".669" offset="0"/><stop stop-color="#fff" stop-opacity="0" offset="1"/></radialGradient><filter id="l" x="-.0744" y="-.0744" width="1.15" height="1.15" color-interpolation-filters="sRGB"><feGaussianBlur stdDeviation="0.076639535"/></filter><radialGradient id="e" cx="133" cy="366" r="1.24" gradientTransform="translate(-6.51 -8.65)" gradientUnits="userSpaceOnUse"><stop stop-color="#ffff62" stop-opacity=".612" offset="0"/><stop stop-color="#fff" stop-opacity="0" offset="1"/></radialGradient><filter id="m" x="-.0744" y="-.0744" width="1.15" height="1.15" color-interpolation-filters="sRGB"><feGaussianBlur stdDeviation="0.076639535"/></filter><radialGradient id="h" cx="133" cy="366" r="1.24" gradientTransform="translate(-6.51 -8.65)" gradientUnits="userSpaceOnUse"><stop stop-color="#ffff85" stop-opacity=".529" offset="0"/><stop stop-color="#fff" stop-opacity="0" offset="1"/></radialGradient><filter id="p" x="-.0744" y="-.0744" width="1.15" height="1.15" color-interpolation-filters="sRGB"><feGaussianBlur stdDeviation="0.076639535"/></filter><radialGradient id="b" cx="133" cy="366" r="1.24" gradientTransform="translate(-19.5 -19.3)" gradientUnits="userSpaceOnUse"><stop stop-color="#ffffae" stop-opacity=".661" offset="0"/><stop stop-color="#fff" stop-opacity="0" offset="1"/></radialGradient><filter id="q" x="-.0744" y="-.0744" width="1.15" height="1.15" color-interpolation-filters="sRGB"><feGaussianBlur stdDeviation="0.076639535"/></filter><radialGradient id="i" cx="133" cy="366" r="1.24" gradientTransform="translate(-.638 .319)" gradientUnits="userSpaceOnUse"><stop stop-color="#ffff8e" stop-opacity=".554" offset="0"/><stop stop-color="#fff" stop-opacity="0" offset="1"/></radialGradient><filter id="r" x="-.0744" y="-.0744" width="1.15" height="1.15" color-interpolation-filters="sRGB"><feGaussianBlur stdDeviation="0.076639535"/></filter><radialGradient id="a" cx="132" cy="362" r="6.56" gradientTransform="matrix(.672 -1.22 1.76 .971 -1.12e3 -72.5)" gradientUnits="userSpaceOnUse"><stop stop-color="#333" offset="0"/><stop stop-color="#333" stop-opacity="0" offset="1"/></radialGradient><filter id="j" x="-.0351" y="-.0396" width="1.07" height="1.08" color-interpolation-filters="sRGB"><feGaussianBlur stdDeviation="0.70119576"/></filter></defs><metadata><rdf:RDF><cc:Work rdf:about=""><dc:format>image/svg+xml</dc:format><dc:type rdf:resource="http://purl.org/dc/dcmitype/StillImage"/><dc:title/></cc:Work></rdf:RDF></metadata><g transform="translate(508 -24.2)"><g transform="matrix(2.55 0 0 2.55 -610 -850)" filter="url(#j)"><g><rect x="41.6" y="353" width="19.4" height="19.3"/><path d="m60.9 368c4.05-0.203 5.54 3.01 9.16 4.9 3.03 1.9 6.6 3.6 10.3 3.38 3.06-0.07 9.2 1.25 9.29 3.42l-0.272 1.38-0.64 1.59-0.994 2.01-1.26 1.04-1.97 0.451-3.51 0.178c-3.88 0.0595-2.48 0.957-7.36 0.951-4.01-0.405-7.58-5.8-7.5-8.6 0.0379-1.84-0.0924-3.47-1.47-4.57-1.13-0.903-2.55-1.41-3.77-1.4l0.0765-4.11z"/><path d="m82 357c1.09-1.64-4.68-3.24-6.3-0.337-1.76 2.77-6.05-0.673-6.73 2.85-0.325 2.8-4.16 1.29-5.23 3.91-1.11 1.97 0.876 5.18 3.1 5.35 3.03-0.111 3.3 3.89 6.46 3.71 2.21 1.3 3.56 6.16 6.68 5.36 3.21-1.58 5.85 0.48 3.86 2.46-1.41 2.1-2.35 4.98 1.44 4.58 2.87-0.551 0.594-2.11 0.711-3.4-0.4-6 1.33-10.9-1.92-14.4l-3.59-5.2 0.546-3.2z"/></g><path d="m60.5 353c5.51 0.162 4.63-7.25 9.3-8.32 3.9-0.916 5.03 1 8.97 0.599 2.2-8e-3 4.88 0.717 4.87 2.93l-0.103 1.43-0.454 1.1-1e-3 0.564 0.116 0.6 0.149 0.527 1.45 3.5c3.78 9.04-5.67 8.36-2.16 2.18 4.98-3.66-8.24-3.97-10.3-3.05-3.56 1.31-5.52 4.85-9.02 6.14-0.597 0.338-1.54 0.99-2.45 0.766-0.0605-0.96-0.404-8.01-0.417-8.98z"/></g><g><rect x="-505" y="48.9" width="49.4" height="49.3" fill="#666"/><rect x="-505" y="72.5" width="49.6" height="13.1" fill="#4d4d4d"/><g font-family="'Open Sans'" letter-spacing="0px" text-anchor="middle" word-spacing="0px"><text x="-480.75674" y="59.516273" fill="#ffff00" font-size="5.4px" stroke-width=".675" text-align="center" style="font-feature-settings:normal;font-variant-caps:normal;font-variant-ligatures:normal;font-variant-numeric:normal;line-height:1.25" xml:space="preserve"><tspan x="-480.75674" y="59.516273" fill="#ffff00" font-family="'Open Sans'" stroke-width=".675">static html</tspan></text><text x="-480.75674" y="64.70089" fill="#ffff00" font-size="5.4px" stroke-width=".675" text-align="center" style="font-feature-settings:normal;font-variant-caps:normal;font-variant-ligatures:normal;font-variant-numeric:normal;line-height:1.25" xml:space="preserve"><tspan x="-480.75674" y="64.70089" fill="#ffff00" font-family="'Open Sans'" stroke-width=".675">template</tspan></text><text x="-479.9093" y="76.950752" fill="#ffffff" font-size="2.59px" stroke-width=".323" text-align="center" style="font-feature-settings:normal;font-variant-caps:normal;font-variant-ligatures:normal;font-variant-numeric:normal;line-height:1.25" xml:space="preserve"><tspan x="-479.9093" y="76.950752">&lt;div id='initial-json' style="display:none"&gt;</tspan><tspan x="-479.9093" y="80.185211"><tspan font-weight="bold" stroke-width=".323">&lt;!-- libjsongit2:initial-json--&gt;</tspan></tspan><tspan x="-479.9093" y="83.419678"><tspan font-family="'Open Sans'" stroke-width=".323"> </tspan>&lt;/div&gt;</tspan></text></g></g><rect x="-504" y="72.4" width="49.6" height="15.4" fill-opacity="0"/><path d="m-505 72.7h55.2" fill="none" stroke="#fff" stroke-dasharray="2.0256265, 0.67520884" stroke-width=".675"/><path d="m-508 85.8h55.2" fill="none" stroke="#fff" stroke-dasharray="2.02562652, 0.67520884" stroke-width=".675"/><g><path d="m-456 86.2c10.3-0.517 14.1 7.68 23.4 12.5 7.74 4.85 16.8 9.19 26.2 8.63 7.82-0.179 23.5 3.19 23.7 8.73l-0.694 3.53-1.63 4.05-2.54 5.12-3.22 2.66-5.02 1.15-8.96 0.454c-9.89 0.152-6.34 2.44-18.8 2.43-10.2-1.03-19.3-14.8-19.1-21.9 0.0967-4.7-0.236-8.85-3.76-11.7-2.89-2.31-6.51-3.6-9.62-3.57l0.195-10.5z" fill="#666"/><path d="m-420 106c-0.127 0.92 0.857 0.925 1.21 1.45 0.0998 0.15 0.141 0.333 0.241 0.482 0.063 0.0947 0.161 0.161 0.241 0.241 0.241 0.241 0.482 0.482 0.723 0.723 0.0804 0.0804 0.178 0.146 0.241 0.241 0.0998 0.15 0.114 0.355 0.241 0.482 0.127 0.127 0.333 0.141 0.482 0.241 0.0947 0.0627 0.161 0.161 0.241 0.241 0.0804 0.0804 0.19 0.139 0.241 0.241 0.036 0.072-0.036 0.169 0 0.241 0.0508 0.102 0.19 0.139 0.241 0.241 0.0677 0.135-0.0666 0.865 0 0.965 0.126 0.189 0.381 0.279 0.482 0.482 0.0296 0.0594 0 1.54 0 1.69 0 0.0804-0.036 0.169 0 0.241 0.0508 0.102 0.19 0.14 0.241 0.241 0.036 0.0719-0.036 0.169 0 0.241 0.0508 0.102 0.19 0.139 0.241 0.241 0.0361 0.0719-0.0255 0.165 0 0.241 0.0587 0.176 0.262 0.613 0.482 0.723 0.0719 0.0357 0.169-0.0357 0.241 0 0.102 0.0506 0.14 0.19 0.241 0.241 0.0719 0.0357 0.184-0.0566 0.241 0 0.0569 0.0566-0.0361 0.169 0 0.241 0.0508 0.102 0.161 0.161 0.241 0.241 0.0804 0.0804 0.139 0.19 0.241 0.241 0.152 0.0758 0.813-0.0758 0.965 0 0.102 0.0505 0.139 0.19 0.241 0.241 0.16 0.0799 0.762-0.0677 0.965 0 1.75 0.582-0.38-0.0694 0.723 0.482 0.144 0.0719 0.339-0.072 0.482 0 0.102 0.0508 0.14 0.19 0.241 0.241 0.0721 0.0357 0.161 0 0.241 0 0.161 0 0.33-0.0508 0.482 0 0.108 0.0357 0.139 0.19 0.241 0.241 0.072 0.0357 0.169-0.0357 0.241 0 0.102 0.0505 0.133 0.205 0.241 0.241 0.153 0.0505 0.322 0 0.482 0 0.544 0 0.913-0.0259 1.45 0.241 0.533 0.267 0.0748 0.15 0.241 0.482 0.0508 0.101 0.161 0.161 0.241 0.241 0.0803 0.0803 0.14 0.19 0.241 0.241 0.072 0.0357 0.205-0.072 0.241 0 0.072 0.144-0.072 0.339 0 0.482 0.0359 0.0721 0.205-0.0719 0.241 0 0.072 0.144-0.0508 0.33 0 0.482 0.0359 0.108 0.19 0.14 0.241 0.241 0.036 0.0718-0.0569 0.184 0 0.241 0.0569 0.0566 0.184-0.0567 0.241 0 0.114 0.114-0.0508 0.33 0 0.482 0.0569 0.17 0.184 0.312 0.241 0.482 0.0524 0.157 0 1.49 0 1.69v0.965c0 0.161 0.0508 0.33 0 0.482-0.0569 0.17-0.184 0.312-0.241 0.482-0.0255 0.0763 0 0.161 0 0.241 0 0.227 0.0456 1.07 0 1.21-0.036 0.108-0.19 0.139-0.241 0.241-0.0359 0.0719 0 0.161 0 0.241v1.45 0.482c0 0.0804-0.0359 0.169 0 0.241 0.0508 0.102 0.161 0.161 0.241 0.241 0.0803 0.0804 0.161 0.161 0.241 0.241 0.0803 0.0804 0.14 0.19 0.241 0.241 0.144 0.072 0.338-0.0719 0.482 0 1.1 0.552-1.02-0.1 0.723 0.482 0.0763 0.0255 0.165-0.0259 0.241 0 0.17 0.0567 0.308 0.198 0.482 0.241 0.156 0.0394 0.326-0.0394 0.482 0 0.174 0.0439 0.312 0.184 0.482 0.241 0.256 0.0854 0.708-0.0856 0.965 0 1.75 0.582-0.38-0.0694 0.723 0.482 0.072 0.0357 0.169-0.0357 0.241 0 0.203 0.102 0.279 0.381 0.482 0.482 0.072 0.0357 0.161 0 0.241 0 0.241 0 0.49-0.0586 0.723 0 0.11 0.0277 0.161 0.161 0.241 0.241 0.241 0 0.487-0.0472 0.723 0 0.436-0.145 0.448 0.391 0.723 0.482 0.153 0.0505 0.326-0.039 0.482 0 0.174 0.0439 0.312 0.184 0.482 0.241 0.0763 0.0259 0.169-0.0357 0.241 0 0.102 0.0506 0.14 0.19 0.241 0.241 0.0529 0.0263 1.43 7e-3 1.45 0 0.163-0.0547 0.539-0.631 0.723-0.723 0.072-0.0357 0.169 0.0357 0.241 0 0.102-0.0505 0.139-0.19 0.241-0.241 0.072-0.0357 0.174 0.0446 0.241 0 0.189-0.126 0.293-0.356 0.482-0.482 0.0669-0.0447 0.161 0 0.241 0 0.161 0 0.33 0.0508 0.482 0 0.108-0.0357 0.14-0.19 0.241-0.241 0.156-0.078 1.22 0.0758 1.45 0 0.972-0.324 0.0967-0.41 0.723-0.723 0.333-0.166 0.216 0.292 0.482-0.241 0.0359-0.0719-0.0569-0.184 0-0.241 0.499-0.499-0.0204 0.762 0.482-0.241 0.0359-0.072 0-0.161 0-0.241s0.0359-0.169 0-0.241c-0.0508-0.102-0.19-0.14-0.241-0.241-0.0359-0.0719 0-0.161 0-0.241 0-0.545-0.0359 0.108 0.241-0.723 0.0298-0.0892 0.0312-1.38 0-1.45-0.0508-0.102-0.19-0.139-0.241-0.241-0.0437-0.0873 0-1.04 0-1.21 0-1.1 0.114-0.0153-0.241-0.723-0.0359-0.0719 0-0.161 0-0.241v-0.241c0-0.188 0.0439-1.56 0-1.69-0.0569-0.17-0.174-0.315-0.241-0.482-0.0944-0.236-0.127-0.496-0.241-0.723-0.0508-0.102-0.19-0.139-0.241-0.241-0.0758-0.152 0.0758-0.813 0-0.965-0.0508-0.102-0.205-0.133-0.241-0.241-0.11-0.329 0.11-1.12 0-1.45-0.036-0.108-0.19-0.139-0.241-0.241-0.0368-0.0735 0-0.615 0-0.723v-1.93c0-0.109 0.0368-0.65 0-0.723-0.13-0.259-0.353-0.464-0.482-0.724-0.072-0.144 0.0508-0.33 0-0.482-0.277-0.831-0.241-0.179-0.241-0.723v-1.93c0-0.0804 0.0569-0.184 0-0.241-0.0569-0.0566-0.184 0.0566-0.241 0-0.0569-0.0566 0.0359-0.169 0-0.241-0.0508-0.102-0.161-0.161-0.241-0.241-0.0803-0.0804-0.14-0.19-0.241-0.241-0.072-0.0357-0.161 0-0.241 0h-0.241-1.21-3.86-2.89-0.965c-0.161 0-0.326 0.039-0.482 0-0.247-0.0616-0.474-0.191-0.723-0.241-0.158-0.0316-0.322 0-0.482 0h-1.21c-0.161 0-0.33 0.0506-0.482 0-0.108-0.0357-0.14-0.19-0.241-0.241-0.072-0.0357-0.161 0-0.241 0-0.161-0.0804-0.333-0.141-0.482-0.241-0.0947-0.0628-0.133-0.205-0.241-0.241-0.362-0.12-0.422 0.06-0.723 0-0.325-0.0649-0.64-0.176-0.965-0.241-0.0789-0.0153-0.161 0-0.241 0h-0.965-0.723c-0.161 0-0.33 0.0505-0.482 0-0.108-0.0357-0.133-0.205-0.241-0.241-0.229-0.0763-0.495 0.0763-0.723 0-0.17-0.0567-0.322-0.161-0.482-0.241-0.241 0-0.487 0.0472-0.723 0-0.97-0.194-0.111-0.176-0.723-0.482-0.0719-0.0357-0.165 0.0259-0.241 0-0.17-0.0566-0.312-0.184-0.482-0.241-0.229-0.0763-0.495 0.0763-0.723 0-0.161-0.0541-0.818-0.891-0.965-0.965-0.216-0.108-0.482 0-0.723 0-0.58 0 0.102 0.0259-0.965-0.241-0.078-0.0204-0.169 0.0357-0.241 0-0.102-0.0506-0.133-0.205-0.241-0.241-0.153-0.0505-0.326 0.0394-0.482 0-0.174-0.0431-0.312-0.184-0.482-0.241-0.217-0.0725-0.506 0.0722-0.723 0-0.216-0.072-0.279-0.381-0.482-0.482-0.0719-0.0357-0.161 0-0.241 0-0.842 0-0.684-0.0106-1.69 0.241z" fill="url(#a)"/><path d="m-402 59.2c2.79-4.18-11.9-8.26-16.1-0.86-4.5 7.06-15.4-1.72-17.2 7.27-0.829 7.14-10.6 3.29-13.3 9.97-2.83 5.02 2.24 13.2 7.92 13.7 7.73-0.284 8.42 9.94 16.5 9.46 5.64 3.33 9.08 15.7 17 13.7 8.19-4.02 14.9 1.22 9.85 6.28-3.6 5.36-5.99 12.7 3.69 11.7 7.32-1.41 1.52-5.39 1.81-8.69-1.02-15.3 3.4-27.8-4.89-36.6l-9.17-13.3 1.39-8.16z" fill="#d4aa00"/><text x="-416.19669" y="120.57246" fill="#ffffff" font-family="'Open Sans'" font-size="5.4px" letter-spacing="0px" stroke-width=".675" text-align="center" text-anchor="middle" word-spacing="0px" style="font-feature-settings:normal;font-variant-caps:normal;font-variant-ligatures:normal;font-variant-numeric:normal;line-height:1.25" xml:space="preserve"><tspan x="-416.19669" y="120.57246">remainder</tspan><tspan x="-416.19669" y="127.32455">of html</tspan></text><text x="-419.62625" y="77.119873" fill="#000000" font-family="'Open Sans'" font-size="5.4px" letter-spacing="0px" stroke-width=".675" text-align="center" text-anchor="middle" word-spacing="0px" style="font-feature-settings:normal;font-variant-caps:normal;font-variant-ligatures:normal;font-variant-numeric:normal;line-height:1.25" xml:space="preserve"><tspan x="-419.62625" y="77.119873">dynamically</tspan><tspan x="-419.62625" y="83.871964">generated</tspan><tspan x="-419.62625" y="90.624046">JSON</tspan></text></g><path d="m-457 48.9c14.1 0.415 11.8-18.5 23.7-21.2 9.95-2.34 12.8 2.56 22.9 1.53 5.6-0.0204 12.5 1.83 12.4 7.48l-0.263 3.65-1.16 2.81-2e-3 1.44 0.295 1.53 0.381 1.35 3.7 8.94c9.65 23.1-14.5 21.3-5.51 5.55 12.7-9.35-21-10.1-26.2-7.77-9.07 3.35-14.1 12.4-23 15.7-1.52 0.862-3.92 2.53-6.24 1.95-0.154-2.45-1.03-20.5-1.06-22.9z" fill="#666"/><g><path d="m-394 77.1c0.358 3.1-1.58 6.53 0.456 9.34 1.65 3.43 6.08-0.768 3.33-3.05-2.16-1.61-4.03-3.33-3.78-6.3z" fill="#666"/><text x="-420.20056" y="39.115841" fill="#ffffff" font-family="'Open Sans'" font-size="5.4px" letter-spacing="0px" stroke-width=".675" text-align="center" text-anchor="middle" word-spacing="0px" style="font-feature-settings:normal;font-variant-caps:normal;font-variant-ligatures:normal;font-variant-numeric:normal;line-height:1.25" xml:space="preserve"><tspan x="-420.20056" y="39.115841" fill="#ffffff" font-family="'Open Sans'" stroke-width=".675">static html</tspan></text><text x="-419.95941" y="45.385567" fill="#ffffff" font-family="'Open Sans'" font-size="5.4px" letter-spacing="0px" stroke-width=".675" text-align="center" text-anchor="middle" word-spacing="0px" style="font-feature-settings:normal;font-variant-caps:normal;font-variant-ligatures:normal;font-variant-numeric:normal;line-height:1.25" xml:space="preserve"><tspan x="-419.95941" y="45.385567" fill="#ffffff" font-family="'Open Sans'" stroke-width=".675">template</tspan></text><circle transform="matrix(2.55 0 0 2.55 -736 -807)" cx="133" cy="366" r="1.24" fill="url(#i)" filter="url(#r)"/><circle transform="matrix(4.95 0 0 4.95 -1.01e3 -1.64e3)" cx="114" cy="346" r="1.24" fill="url(#b)" filter="url(#q)"/><circle transform="matrix(4.47 0 0 4.47 -978 -1.49e3)" cx="127" cy="357" r="1.24" fill="url(#h)" filter="url(#p)"/><circle transform="matrix(4.47 0 0 4.47 -980 -1.54e3)" cx="127" cy="357" r="1.24" fill="url(#e)" filter="url(#m)"/><circle transform="matrix(4.47 0 0 4.47 -959 -1.51e3)" cx="127" cy="357" r="1.24" fill="url(#d)" filter="url(#l)"/><circle transform="matrix(3.48 0 0 3.48 -841 -1.18e3)" cx="127" cy="357" r="1.24" fill="url(#g)" filter="url(#k)" opacity=".486"/><circle transform="matrix(4.47 0 0 4.47 -999 -1.53e3)" cx="127" cy="357" r="1.24" fill="url(#f)" filter="url(#o)"/><circle transform="matrix(4.47 0 0 4.47 -993 -1.5e3)" cx="127" cy="357" r="1.24" fill="url(#c)" filter="url(#n)"/><text x="-478.18784" y="93.683533" fill="#ffff00" font-family="'Open Sans'" font-size="5.4px" letter-spacing="0px" stroke-width=".675" text-align="center" text-anchor="middle" word-spacing="0px" style="font-feature-settings:normal;font-variant-caps:normal;font-variant-ligatures:normal;font-variant-numeric:normal;line-height:1.25" xml:space="preserve"><tspan x="-478.18784" y="93.683533" fill="#ffff00" font-family="'Open Sans'" stroke-width=".675">...remainder of html</tspan></text></g></g></svg>
